<svg width="220" height="260" viewBox="0 0 166 205" fill="none" xmlns="http://www.w3.org/2000/svg">
<path d="M15.4969 5.26001C15.6823 5.04268 15.8823 4.80801 16.0797 4.56401C16.2776 4.80801 16.4771 5.04268 16.6631 5.26001C17.2344 5.92801 17.7755 6.65869 18.4115 7.27336C17.9109 9.17069 17.9052 11.2374 17.9855 13.2747C16.7255 13.2187 15.3979 13.1867 14.164 13.3494C14.2208 11.864 14.2375 10.3627 14.0527 8.92L14.236 8.92668C15.0131 8.94534 15.6735 9.06133 16.3099 8.55067C16.6333 8.29067 16.6333 7.64934 16.3099 7.38934C15.7303 6.92401 15.1973 6.98936 14.4849 7.00669C14.3156 7.01069 14.1464 7.01467 13.9776 7.02134C14.5131 6.46134 14.9984 5.84268 15.4969 5.26001Z" fill="white"/>
<path d="M14.05 21.4133C14.5254 21.488 15.0297 21.472 15.4453 21.4253C16.7478 21.2813 16.7505 19.5413 15.4453 19.3987C15.0312 19.3533 14.5297 19.3373 14.0557 19.412C14.038 18.5307 14.0098 17.656 14.027 16.808C14.0364 16.3627 14.0584 15.9027 14.0781 15.444C15.3708 15.7133 16.7713 15.7773 18.1 15.816C18.1136 16.1493 18.126 16.4827 18.1322 16.808C18.1822 19.264 17.8489 21.952 18.5078 24.328C17.7156 24.36 16.9245 24.4133 16.1426 24.5187L16.0797 24.5347L16.0172 24.5187C15.2354 24.4133 14.4442 24.36 13.6521 24.328C13.9109 23.3933 14.014 22.4107 14.05 21.4133Z" fill="white"/>
<path d="M10.2464 28.156C10.2099 28.2573 10.9891 28.152 11.236 28.1533C12.6568 28.1613 14.1339 28.1973 15.5432 28.0173C15.7303 27.9933 15.9088 27.9453 16.0798 27.8867C16.2511 27.9453 16.4292 27.9933 16.6161 28.0173C18.0255 28.1973 19.5031 28.1613 20.9235 28.1533C21.1708 28.152 21.95 28.2573 21.9131 28.156C22.011 28.4267 21.888 28.9067 21.8079 29.2893C21.0146 29.3093 20.2401 29.3893 19.4817 29.512C17.836 29.5987 16.1943 29.8013 14.6844 29.9027L14.3812 29.916C13.1162 29.5053 11.7558 29.3253 10.3522 29.2893C10.2714 28.9067 10.149 28.4267 10.2464 28.156Z" fill="white"/>
<path d="M4.20837 58.6561C4.40157 52.0374 4.57757 45.4187 4.74944 38.8014C4.99317 38.9481 5.28491 39.0494 5.63744 39.0707C11.276 39.3987 18.3161 39.6601 23.7088 37.8041C24.2229 37.6281 24.224 36.9387 23.7088 36.7614C18.314 34.9147 11.2754 35.1841 5.63744 35.5201C5.32544 35.5387 5.05984 35.6201 4.83277 35.7401C4.85157 34.9947 4.87544 34.2507 4.89371 33.5054C7.78851 33.6361 10.9172 33.9521 13.6526 33.2814C14.0005 33.2681 14.3473 33.2547 14.6844 33.2507C15.9302 33.2387 17.2677 33.3001 18.6197 33.3147C21.3281 33.9494 24.412 33.6334 27.2661 33.5054C27.4729 41.8894 27.7073 50.2721 27.951 58.6561C23.9948 58.7867 19.9978 58.8307 16.0797 59.3361C12.162 58.8307 8.16504 58.7867 4.20837 58.6561Z" fill="white"/>
<path d="M9.15934 68.036C9.13694 66.412 9.09174 64.7774 8.87708 63.176C11.2839 63.3307 13.6927 63.4254 16.0797 63.3374C18.4672 63.4254 20.876 63.3307 23.2828 63.176C23.0677 64.7774 23.0229 66.412 23.0005 68.036C20.6932 68.12 18.3864 68.2134 16.0797 68.316C13.7735 68.2134 11.4667 68.12 9.15934 68.036Z" fill="white"/>
<path d="M13.1011 84.296C14.0167 84.4986 15.1677 84.54 15.8109 83.9133C16.1495 83.584 16.0943 83.096 15.8109 82.76C15.226 82.0666 13.9902 82.0587 13.0506 82.1907C13.036 81.5587 13.0266 80.928 13.0042 80.2946C13.223 80.3186 13.4459 80.3293 13.6636 80.3387C14.6636 80.3867 15.8104 80.508 16.576 79.7573C16.9282 79.412 16.9552 78.7666 16.576 78.4266C15.6932 77.6333 14.4407 77.8693 13.3427 77.968C13.2282 77.9773 13.0651 78.0066 12.8902 78.044C12.8568 77.5146 12.8312 76.9827 12.7839 76.456C13.4656 76.5107 14.1453 76.524 14.8307 76.5347C15.7167 76.548 16.4073 76.2493 17.1973 75.9067C17.7781 75.6533 17.7593 74.6573 17.1973 74.3986C15.6588 73.6893 14.2022 73.6466 12.5198 73.7786L12.4636 73.7933C12.3803 73.2586 12.2917 72.724 12.1833 72.1973C12.8136 72.2466 13.4437 72.3 14.074 72.3493C14.3724 72.5186 14.7355 72.6146 15.1776 72.5813C15.4787 72.5586 15.7792 72.532 16.0798 72.5093C16.3807 72.532 16.6812 72.5586 16.9823 72.5813C17.4245 72.6146 17.7875 72.5186 18.086 72.3493C18.7162 72.3 19.3464 72.2466 19.9765 72.1973C18.9697 77.0866 19.1391 82.428 18.9917 87.4187C18.0161 87.4667 17.0479 87.5307 16.0798 87.636C15.112 87.5307 14.1432 87.4667 13.1677 87.4187C13.1375 86.392 13.1197 85.3453 13.1011 84.296Z" fill="white"/>
<path d="M149.211 5.26001C149.396 5.04268 149.596 4.80801 149.793 4.56401C149.991 4.80801 150.191 5.04268 150.377 5.26001C150.948 5.92801 151.489 6.65869 152.125 7.27336C151.624 9.17069 151.619 11.2374 151.699 13.2747C150.439 13.2187 149.111 13.1867 147.877 13.3494C147.935 11.864 147.951 10.3627 147.765 8.92L147.949 8.92668C148.727 8.94534 149.387 9.06133 150.024 8.55067C150.347 8.29067 150.347 7.64934 150.024 7.38934C149.444 6.92401 148.911 6.98936 148.199 7.00669C148.029 7.01069 147.86 7.01467 147.691 7.02134C148.227 6.46134 148.712 5.84268 149.211 5.26001Z" fill="white"/>
<path d="M147.764 21.4133C148.239 21.488 148.743 21.472 149.159 21.4253C150.461 21.2813 150.464 19.5413 149.159 19.3987C148.745 19.3533 148.243 19.3373 147.769 19.412C147.752 18.5307 147.724 17.656 147.741 16.808C147.749 16.3627 147.772 15.9027 147.792 15.444C149.084 15.7133 150.485 15.7773 151.813 15.816C151.827 16.1493 151.84 16.4827 151.847 16.808C151.896 19.264 151.563 21.952 152.221 24.328C151.429 24.36 150.637 24.4133 149.856 24.5187L149.793 24.5347L149.731 24.5187C148.949 24.4133 148.157 24.36 147.365 24.328C147.624 23.3933 147.728 22.4107 147.764 21.4133Z" fill="white"/>
<path d="M143.96 28.156C143.924 28.2573 144.703 28.152 144.949 28.1533C146.371 28.1613 147.848 28.1973 149.257 28.0173C149.444 27.9933 149.623 27.9453 149.793 27.8867C149.964 27.9453 150.143 27.9933 150.329 28.0173C151.739 28.1973 153.216 28.1613 154.637 28.1533C154.884 28.152 155.664 28.2573 155.627 28.156C155.724 28.4267 155.601 28.9067 155.521 29.2893C154.728 29.3093 153.953 29.3893 153.195 29.512C151.549 29.5987 149.908 29.8013 148.397 29.9027L148.095 29.916C146.829 29.5053 145.469 29.3253 144.065 29.2893C143.985 28.9067 143.863 28.4267 143.96 28.156Z" fill="white"/>
<path d="M152.705 87.4187C151.729 87.4667 150.761 87.5307 149.793 87.636C148.825 87.5307 147.857 87.4667 146.881 87.4187C146.851 86.392 146.833 85.3453 146.815 84.296C147.731 84.4986 148.881 84.54 149.524 83.9133C149.863 83.584 149.808 83.096 149.524 82.76C148.94 82.0666 147.704 82.0587 146.764 82.1907C146.749 81.5587 146.74 80.928 146.717 80.2946C146.936 80.3186 147.159 80.3293 147.377 80.3387C148.377 80.3867 149.524 80.508 150.289 79.7573C150.641 79.412 150.668 78.7666 150.289 78.4266C149.407 77.6333 148.155 77.8693 147.056 77.968C146.941 77.9773 146.779 78.0066 146.604 78.044C146.571 77.5146 146.545 76.9827 146.497 76.456C147.179 76.5107 147.859 76.524 148.544 76.5347C149.429 76.548 150.121 76.2493 150.911 75.9067C151.492 75.6533 151.473 74.6573 150.911 74.3986C149.372 73.6893 147.916 73.6466 146.233 73.7786L146.177 73.7933C146.093 73.2586 146.005 72.724 145.897 72.1973C146.527 72.2466 147.157 72.3 147.788 72.3493C148.085 72.5186 148.449 72.6146 148.891 72.5813C149.192 72.5586 149.492 72.532 149.793 72.5093C150.095 72.532 150.395 72.5586 150.696 72.5813C151.137 72.6146 151.501 72.5186 151.8 72.3493C152.429 72.3 153.06 72.2466 153.691 72.1973C152.684 77.0866 152.852 82.428 152.705 87.4187Z" fill="white"/>
<path d="M156.715 68.036C154.407 68.12 152.1 68.2134 149.793 68.316C147.487 68.2134 145.18 68.12 142.873 68.036C142.851 66.412 142.805 64.7774 142.591 63.176C144.997 63.3307 147.407 63.4254 149.793 63.3374C152.18 63.4254 154.589 63.3307 156.996 63.176C156.781 64.7774 156.736 66.412 156.715 68.036Z" fill="white"/>
<path d="M149.793 59.3361C145.875 58.8307 141.879 58.7867 137.923 58.6561C138.115 52.0374 138.291 45.4187 138.463 38.8014C138.707 38.9481 138.999 39.0494 139.351 39.0707C144.989 39.3987 152.029 39.6601 157.423 37.8041C157.936 37.6281 157.937 36.9387 157.423 36.7614C152.028 34.9147 144.989 35.1841 139.351 35.5201C139.039 35.5387 138.773 35.6201 138.547 35.7401C138.565 34.9947 138.589 34.2507 138.607 33.5054C141.501 33.6361 144.631 33.9521 147.367 33.2814C147.715 33.2681 148.061 33.2547 148.397 33.2507C149.644 33.2387 150.981 33.3001 152.333 33.3147C155.041 33.9494 158.125 33.6334 160.98 33.5054C161.187 41.8894 161.42 50.2721 161.665 58.6561C157.708 58.7867 153.712 58.8307 149.793 59.3361Z" fill="white"/>
<path d="M18.1 15.816C16.7713 15.7774 15.3708 15.7134 14.0781 15.444C14.0584 15.9027 14.0364 16.3627 14.027 16.808C14.0234 16.988 14.0333 17.1774 14.0333 17.3587C14.8114 17.4134 15.5932 17.4 16.4177 17.372C16.9828 17.3547 17.5584 17.3507 18.1344 17.344C18.1344 17.1654 18.136 16.9854 18.1322 16.808C18.126 16.4827 18.1136 16.1494 18.1 15.816Z" fill="#A2C0CB"/>
<path d="M152.333 33.3146C150.981 33.3 149.644 33.2387 148.397 33.2507C148.061 33.2547 147.715 33.268 147.367 33.2813C144.631 33.952 141.501 33.636 138.607 33.5053C138.589 34.2507 138.565 34.9947 138.547 35.74C138.773 35.62 139.039 35.5387 139.351 35.52C144.941 35.1867 151.907 34.924 157.283 36.7227C157.371 36.4307 157.431 36.12 157.431 35.764C157.431 34.8706 157.121 34.204 156.627 33.696C155.152 33.7133 153.695 33.6346 152.333 33.3146Z" fill="#A2C0CB"/>
<path d="M148.095 29.916L148.397 29.9027C149.82 29.8067 151.363 29.6267 152.912 29.5333C152.94 29.0573 152.857 28.576 152.655 28.1573C151.872 28.1467 151.092 28.1147 150.329 28.0173C150.143 27.9933 149.964 27.9453 149.793 27.8867C149.623 27.9453 149.444 27.9933 149.257 28.0173C147.848 28.1973 146.371 28.1613 144.949 28.1533C144.703 28.152 143.924 28.2573 143.96 28.156C143.863 28.4267 143.985 28.9067 144.065 29.2893C145.469 29.3253 146.829 29.5053 148.095 29.916Z" fill="#A2C0CB"/>
<path d="M151.812 19.724C151.828 18.7387 151.865 17.756 151.847 16.808C151.84 16.4827 151.827 16.1494 151.813 15.816C150.485 15.7774 149.084 15.7134 147.792 15.444C147.772 15.9027 147.749 16.3627 147.741 16.808C147.725 17.5387 147.748 18.2934 147.765 19.0494C147.892 19.0667 148.007 19.0933 148.139 19.1053C149.397 19.2227 150.609 19.436 151.812 19.724Z" fill="#A2C0CB"/>
<path d="M150.696 72.5813C150.395 72.5586 150.095 72.532 149.793 72.5093C149.492 72.532 149.192 72.5586 148.891 72.5813C148.449 72.6146 148.085 72.5186 147.788 72.3493C147.157 72.3 146.527 72.2466 145.897 72.1973C146.005 72.724 146.093 73.2586 146.177 73.7933L146.233 73.7786C147.916 73.6466 149.372 73.6893 150.911 74.3986C151.473 74.6573 151.492 75.6533 150.911 75.9067C150.121 76.2493 149.431 76.548 148.544 76.5347C147.859 76.524 147.179 76.5107 146.497 76.456C146.545 76.9827 146.571 77.5146 146.604 78.044C146.779 78.0066 146.941 77.9773 147.056 77.968C148.155 77.8693 149.407 77.6333 150.289 78.4266C150.668 78.7666 150.641 79.412 150.289 79.7573C149.524 80.508 148.377 80.3867 147.377 80.3387C147.159 80.3293 146.936 80.3186 146.717 80.2946C146.74 80.928 146.749 81.5587 146.764 82.1907C147.704 82.0587 148.94 82.0666 149.524 82.76C149.808 83.096 149.863 83.584 149.524 83.9133C148.881 84.54 147.731 84.4986 146.815 84.296C146.833 85.3453 146.851 86.392 146.881 87.4187C147.857 87.4667 148.825 87.5307 149.793 87.636C150.004 87.6133 150.215 87.608 150.425 87.5893C150.533 87.26 150.607 86.9173 150.607 86.556C150.607 85.756 150.344 85.0853 149.932 84.5466C150.119 84.3373 150.3 84.1147 150.475 83.8733C151.212 82.852 151.092 81.528 150.559 80.4493C151.372 79.9106 151.9 78.9893 151.9 77.9826L151.884 77.828C152.264 77.76 152.635 77.668 152.999 77.56C153.127 75.74 153.332 73.94 153.691 72.1973C153.06 72.2466 152.429 72.3 151.8 72.3493C151.501 72.5186 151.137 72.6146 150.696 72.5813Z" fill="#A2C0CB"/>
<path d="M151.699 13.2747C151.688 13.012 151.687 12.7507 151.68 12.488C150.795 12.368 149.907 12.2707 149.009 12.2173C148.627 12.1933 148.264 12.2013 147.909 12.2267C147.903 12.6013 147.892 12.976 147.877 13.3494C149.111 13.1867 150.439 13.2187 151.699 13.2747Z" fill="#A2C0CB"/>
<path d="M152 63.344C151.264 63.3467 150.527 63.364 149.793 63.3374C147.407 63.4254 144.997 63.3307 142.591 63.176C142.805 64.7774 142.851 66.412 142.873 68.036C145.18 68.12 147.487 68.2134 149.793 68.316C150.857 68.268 151.923 68.2294 152.987 68.1867C152.804 68.1694 152.625 68.1494 152.437 68.136C153.52 66.6974 153.388 64.56 152 63.344Z" fill="#A2C0CB"/>
<path d="M23.0484 48.5641C23.4229 45.0814 21.6552 42.2201 19.1702 40.1187C20.7297 39.9947 22.2276 39.7054 23.5917 39.1387C25.7161 38.2561 26.9317 34.9241 24.3084 33.6561L24.3057 33.6547C22.3625 33.7374 20.4093 33.7347 18.6197 33.3147C17.2677 33.3001 15.9306 33.2387 14.6844 33.2507C14.3473 33.2547 14.0005 33.2681 13.6526 33.2814C10.9172 33.9521 7.78851 33.6361 4.89371 33.5054C4.87544 34.2507 4.85157 34.9947 4.83277 35.7401C5.05984 35.6201 5.32544 35.5387 5.63797 35.5201C11.2754 35.1841 18.314 34.9147 23.7088 36.7614C24.224 36.9387 24.2229 37.6281 23.7088 37.8041C18.3161 39.6601 11.276 39.3987 5.63797 39.0707C5.28491 39.0494 4.99317 38.9481 4.74944 38.8014C4.57757 45.4187 4.40157 52.0374 4.20837 58.6561C8.16504 58.7867 12.162 58.8307 16.0797 59.3361C16.2822 59.3107 16.4864 59.2974 16.6896 59.2747C20.4172 57.0427 22.5702 53.0147 23.0484 48.5641Z" fill="#A2C0CB"/>
<path d="M17.9855 13.2747C17.976 13.0387 17.974 12.8013 17.9677 12.5653C17.4541 12.616 16.9391 12.6707 16.4177 12.7187C15.6292 12.7907 14.8948 12.864 14.1745 12.984C14.1703 13.1067 14.1688 13.228 14.164 13.3494C15.3979 13.1867 16.7255 13.2187 17.9855 13.2747Z" fill="#A2C0CB"/>
<path d="M156.883 48.0214C156.315 44.5747 153.296 41.5721 149.384 39.5187C151.379 39.5094 154.66 39.5081 156.349 38.1121C151.116 39.6027 144.628 39.3787 139.351 39.0707C138.999 39.0494 138.707 38.9481 138.463 38.8014C138.291 45.4187 138.115 52.0374 137.923 58.6561C141.879 58.7867 145.875 58.8307 149.793 59.3361C150.741 59.2147 151.695 59.1214 152.651 59.0454C156.191 56.7961 157.629 52.5481 156.883 48.0214Z" fill="#A2C0CB"/>
<path d="M14.3812 29.916L14.6844 29.9027C15.2834 29.8627 15.914 29.8013 16.5464 29.7427C16.5454 29.108 16.3636 28.468 16.0407 27.896C15.8812 27.9493 15.7167 27.9947 15.5432 28.0173C14.1344 28.1973 12.6568 28.1613 11.236 28.1533C10.9891 28.152 10.2099 28.2573 10.2464 28.156C10.149 28.4267 10.2714 28.9067 10.3522 29.2893C11.7558 29.3253 13.1162 29.5053 14.3812 29.916Z" fill="#A2C0CB"/>
<path d="M16.9823 72.5814C16.6812 72.5587 16.3807 72.5321 16.0798 72.5094C15.7792 72.5321 15.4787 72.5587 15.1776 72.5814C14.7355 72.6147 14.3724 72.5187 14.074 72.3494C13.4437 72.3001 12.8136 72.2467 12.1833 72.1974C12.2917 72.7241 12.3803 73.2587 12.4636 73.7934L12.5203 73.7787C14.2021 73.6467 15.6588 73.6894 17.1973 74.3987C17.7593 74.6574 17.7781 75.6534 17.1973 75.9067C16.4073 76.2494 15.7167 76.5481 14.8307 76.5347C14.1453 76.5241 13.4656 76.5107 12.7839 76.4561C12.8312 76.9827 12.8568 77.5147 12.8902 78.0441C13.0651 78.0067 13.2282 77.9774 13.3427 77.9681C14.4407 77.8694 15.6932 77.6334 16.576 78.4267C16.9552 78.7667 16.9282 79.4121 16.576 79.7574C15.8104 80.5081 14.6636 80.3867 13.6636 80.3387C13.4459 80.3294 13.223 80.3187 13.0042 80.2947C13.0266 80.9281 13.036 81.5587 13.0506 82.1907C13.9902 82.0587 15.226 82.0667 15.8109 82.7601C16.0943 83.0961 16.1495 83.5841 15.8109 83.9134C15.1677 84.5401 14.0167 84.4987 13.1011 84.2961C13.1197 85.3454 13.1375 86.3921 13.1677 87.4187C13.7312 87.4467 14.2902 87.5014 14.8506 87.5441C14.8584 87.0774 14.7552 86.6054 14.4984 86.1801C16.7151 86.3201 17.7745 83.9081 17.2328 82.1374C17.8536 81.6801 18.3292 81.0241 18.5385 80.2627C18.6203 79.9667 18.6396 79.6467 18.6307 79.3214C18.8177 79.3201 19.0011 79.3094 19.186 79.3027C19.2948 76.8907 19.5036 74.4934 19.9765 72.1974C19.3464 72.2467 18.7162 72.3001 18.086 72.3494C17.7875 72.5187 17.4245 72.6147 16.9823 72.5814Z" fill="#A2C0CB"/>
<path d="M15.4188 63.3387C13.2473 63.3894 11.0625 63.3161 8.87708 63.1761C9.09214 64.7774 9.13694 66.4121 9.15934 68.0361C10.7729 68.0947 12.386 68.1641 13.9989 68.2321C15.824 67.3281 16.3027 64.9574 15.4188 63.3387Z" fill="#A2C0CB"/>
<path d="M149.793 59.336C145.875 58.8307 141.879 58.7867 137.923 58.656C138.115 52.0373 138.291 45.4187 138.463 38.8013C138.707 38.948 138.999 39.0493 139.351 39.0707C144.989 39.3987 152.029 39.66 157.423 37.804C157.936 37.628 157.937 36.9387 157.423 36.7613C152.028 34.9147 144.989 35.184 139.351 35.52C139.039 35.5387 138.773 35.62 138.547 35.74C138.565 34.9947 138.589 34.2507 138.607 33.5053C141.501 33.636 144.631 33.952 147.367 33.2813C147.715 33.268 148.061 33.2547 148.397 33.2507C149.644 33.2387 150.981 33.3 152.333 33.3147C155.041 33.9493 158.125 33.6333 160.98 33.5053C161.187 41.8893 161.42 50.272 161.665 58.656C157.708 58.7867 153.712 58.8307 149.793 59.336ZM156.715 68.036C154.407 68.12 152.1 68.2133 149.793 68.316C147.487 68.2133 145.18 68.12 142.873 68.036C142.851 66.412 142.805 64.7773 142.591 63.176C144.997 63.3307 147.407 63.4253 149.793 63.3373C152.18 63.4253 154.589 63.3307 156.996 63.176C156.781 64.7773 156.736 66.412 156.715 68.036ZM152.705 87.4187C151.729 87.4667 150.761 87.5307 149.793 87.636C148.825 87.5307 147.857 87.4667 146.881 87.4187C146.851 86.392 146.833 85.3453 146.815 84.296C147.731 84.4987 148.881 84.54 149.524 83.9133C149.863 83.584 149.808 83.096 149.524 82.76C148.94 82.0667 147.704 82.0587 146.764 82.1907C146.749 81.5587 146.74 80.928 146.717 80.2947C146.936 80.3187 147.159 80.3293 147.377 80.3387C148.377 80.3867 149.524 80.508 150.289 79.7573C150.641 79.412 150.668 78.7667 150.289 78.4267C149.407 77.6333 148.155 77.8693 147.056 77.968C146.941 77.9773 146.779 78.0067 146.604 78.044C146.571 77.5147 146.545 76.9827 146.497 76.456C147.179 76.5107 147.859 76.524 148.544 76.5347C149.429 76.548 150.121 76.2493 150.911 75.9067C151.492 75.6533 151.473 74.6573 150.911 74.3987C149.372 73.6893 147.916 73.6467 146.233 73.7787L146.177 73.7933C146.093 73.2587 146.005 72.724 145.897 72.1973C146.527 72.2467 147.157 72.3 147.788 72.3493C148.085 72.5187 148.449 72.6147 148.891 72.5813C149.192 72.5587 149.492 72.532 149.793 72.5093C150.095 72.532 150.395 72.5587 150.696 72.5813C151.137 72.6147 151.501 72.5187 151.8 72.3493C152.429 72.3 153.06 72.2467 153.691 72.1973C152.684 77.0867 152.852 82.428 152.705 87.4187ZM143.96 28.156C143.924 28.2573 144.703 28.152 144.949 28.1533C146.371 28.1613 147.848 28.1973 149.257 28.0173C149.444 27.9933 149.623 27.9453 149.793 27.8866C149.964 27.9453 150.143 27.9933 150.329 28.0173C151.739 28.1973 153.216 28.1613 154.637 28.1533C154.884 28.152 155.664 28.2573 155.627 28.156C155.724 28.4266 155.601 28.9066 155.521 29.2893C154.728 29.3093 153.953 29.3893 153.195 29.512C151.549 29.5987 149.908 29.8013 148.397 29.9027L148.095 29.916C146.829 29.5053 145.469 29.3253 144.065 29.2893C143.985 28.9066 143.863 28.4266 143.96 28.156ZM147.764 21.4133C148.239 21.488 148.743 21.472 149.159 21.4253C150.461 21.2813 150.464 19.5413 149.159 19.3987C148.745 19.3533 148.243 19.3373 147.769 19.412C147.752 18.5307 147.724 17.656 147.741 16.808C147.749 16.3627 147.772 15.9027 147.792 15.444C149.084 15.7133 150.485 15.7773 151.813 15.816C151.827 16.1493 151.84 16.4827 151.847 16.808C151.896 19.264 151.563 21.952 152.221 24.328C151.429 24.36 150.637 24.4133 149.856 24.5186L149.793 24.5347L149.731 24.5186C148.949 24.4133 148.157 24.36 147.365 24.328C147.624 23.3933 147.728 22.4107 147.764 21.4133ZM149.211 5.25998C149.396 5.04265 149.596 4.80799 149.793 4.56399C149.991 4.80799 150.191 5.04265 150.377 5.25998C150.948 5.92798 151.489 6.65866 152.125 7.27333C151.624 9.17066 151.619 11.2373 151.699 13.2747C150.439 13.2187 149.111 13.1867 147.877 13.3493C147.935 11.864 147.951 10.3626 147.765 8.91998L147.949 8.92665C148.727 8.94532 149.387 9.06131 150.024 8.55064C150.347 8.29064 150.347 7.64931 150.024 7.38931C149.444 6.92398 148.911 6.98933 148.199 7.00666C148.029 7.01066 147.86 7.01464 147.691 7.02131C148.227 6.46131 148.712 5.84265 149.211 5.25998ZM132.183 155.6C124.515 166.776 113.833 175.436 99.528 179.228C83.0373 183.598 64.377 176.931 55.6494 162.108C46.7516 146.996 51.425 127.835 63.9578 116.528C77.2826 104.505 96.7306 104.436 111.667 113.215C126.452 121.905 133.436 139.028 132.183 155.6ZM13.101 84.296C14.0166 84.4987 15.1677 84.54 15.8109 83.9133C16.1494 83.584 16.0942 83.096 15.8109 82.76C15.226 82.0667 13.9901 82.0587 13.0505 82.1907C13.036 81.5587 13.0265 80.928 13.0041 80.2947C13.2229 80.3187 13.4458 80.3293 13.6636 80.3387C14.6636 80.3867 15.8104 80.508 16.576 79.7573C16.9281 79.412 16.9552 78.7667 16.576 78.4267C15.6932 77.6333 14.4406 77.8693 13.3426 77.968C13.2281 77.9773 13.0651 78.0067 12.8901 78.044C12.8568 77.5147 12.8312 76.9827 12.7839 76.456C13.4656 76.5107 14.1453 76.524 14.8306 76.5347C15.7166 76.548 16.4073 76.2493 17.1973 75.9067C17.7781 75.6533 17.7593 74.6573 17.1973 74.3987C15.6588 73.6893 14.2021 73.6467 12.5197 73.7787L12.4636 73.7933C12.3802 73.2587 12.2917 72.724 12.1833 72.1973C12.8136 72.2467 13.4437 72.3 14.074 72.3493C14.3724 72.5187 14.7354 72.6147 15.1776 72.5813C15.4786 72.5587 15.7792 72.532 16.0797 72.5093C16.3807 72.532 16.6812 72.5587 16.9822 72.5813C17.4245 72.6147 17.7874 72.5187 18.086 72.3493C18.7161 72.3 19.3464 72.2467 19.9765 72.1973C18.9697 77.0867 19.139 82.428 18.9917 87.4187C18.0161 87.4667 17.0479 87.5307 16.0797 87.636C15.112 87.5307 14.1432 87.4667 13.1677 87.4187C13.1374 86.392 13.1197 85.3453 13.101 84.296ZM9.15932 68.036C9.13692 66.412 9.09172 64.7773 8.87705 63.176C11.2838 63.3307 13.6927 63.4253 16.0797 63.3373C18.4672 63.4253 20.876 63.3307 23.2828 63.176C23.0677 64.7773 23.0229 66.412 23.0005 68.036C20.6932 68.12 18.3864 68.2133 16.0797 68.316C13.7735 68.2133 11.4666 68.12 9.15932 68.036ZM4.20838 58.656C4.40158 52.0373 4.57758 45.4187 4.74945 38.8013C4.99318 38.948 5.28492 39.0493 5.63745 39.0707C11.276 39.3987 18.3161 39.66 23.7088 37.804C24.2229 37.628 24.224 36.9387 23.7088 36.7613C18.314 34.9147 11.2754 35.184 5.63745 35.52C5.32545 35.5387 5.05985 35.62 4.83278 35.74C4.85158 34.9947 4.87545 34.2507 4.89372 33.5053C7.78852 33.636 10.9172 33.952 13.6527 33.2813C14.0005 33.268 14.3473 33.2547 14.6844 33.2507C15.9302 33.2387 17.2677 33.3 18.6197 33.3147C21.3281 33.9493 24.412 33.6333 27.2661 33.5053C27.4729 41.8893 27.7073 50.272 27.951 58.656C23.9948 58.7867 19.9979 58.8307 16.0797 59.336C12.162 58.8307 8.16505 58.7867 4.20838 58.656ZM10.2464 28.156C10.2099 28.2573 10.9891 28.152 11.236 28.1533C12.6568 28.1613 14.1338 28.1973 15.5432 28.0173C15.7302 27.9933 15.9088 27.9453 16.0797 27.8866C16.2511 27.9453 16.4292 27.9933 16.6161 28.0173C18.0254 28.1973 19.5031 28.1613 20.9235 28.1533C21.1708 28.152 21.95 28.2573 21.9131 28.156C22.0109 28.4266 21.888 28.9066 21.8078 29.2893C21.0145 29.3093 20.2401 29.3893 19.4817 29.512C17.836 29.5987 16.1942 29.8013 14.6844 29.9027L14.3812 29.916C13.1161 29.5053 11.7557 29.3253 10.3521 29.2893C10.2713 28.9066 10.1489 28.4266 10.2464 28.156ZM14.05 21.4133C14.5254 21.488 15.0297 21.472 15.4453 21.4253C16.7479 21.2813 16.7505 19.5413 15.4453 19.3987C15.0312 19.3533 14.5297 19.3373 14.0557 19.412C14.038 18.5307 14.0098 17.656 14.027 16.808C14.0364 16.3627 14.0584 15.9027 14.0781 15.444C15.3708 15.7133 16.7713 15.7773 18.1 15.816C18.1136 16.1493 18.126 16.4827 18.1322 16.808C18.1822 19.264 17.8489 21.952 18.5079 24.328C17.7156 24.36 16.9245 24.4133 16.1426 24.5186L16.0797 24.5347L16.0172 24.5186C15.2355 24.4133 14.4442 24.36 13.6521 24.328C13.9109 23.3933 14.014 22.4107 14.05 21.4133ZM15.4969 5.25998C15.6822 5.04265 15.8823 4.80799 16.0797 4.56399C16.2776 4.80799 16.4771 5.04265 16.6631 5.25998C17.2344 5.92798 17.7754 6.65866 18.4114 7.27333C17.9109 9.17066 17.9052 11.2373 17.9854 13.2747C16.7254 13.2187 15.3978 13.1867 14.164 13.3493C14.2208 11.864 14.2375 10.3626 14.0527 8.91998L14.236 8.92665C15.0131 8.94532 15.6734 9.06131 16.3098 8.55064C16.6333 8.29064 16.6333 7.64931 16.3098 7.38931C15.7302 6.92398 15.1973 6.98933 14.4849 7.00666C14.3156 7.01066 14.1464 7.01464 13.9776 7.02131C14.513 6.46131 14.9984 5.84265 15.4969 5.25998ZM164.863 31.4906C164.823 30.424 163.997 29.5133 162.893 29.5213C161.739 29.5293 160.517 29.4546 159.275 29.3866C159.723 27.6546 159.199 25.8507 157.527 24.844C156.936 24.4893 156.232 24.368 155.524 24.3213C156.104 21.9266 155.679 19.28 155.635 16.808C155.579 13.8 155.897 10.3973 155.061 7.45331C155.456 6.91198 155.597 6.16131 155.241 5.51998C154.721 4.58264 153.817 3.82931 153.08 3.05731C152.301 2.23998 151.411 1.24265 150.284 0.958648C150.108 0.914648 149.947 0.914655 149.793 0.931988C149.64 0.914655 149.479 0.914648 149.303 0.958648C148.176 1.24265 147.285 2.23998 146.507 3.05731C145.769 3.82931 144.865 4.58264 144.345 5.51998C143.989 6.16131 144.131 6.91198 144.525 7.45331C143.689 10.3973 144.008 13.8 143.952 16.808C143.908 19.28 143.483 21.9266 144.063 24.3213C143.355 24.368 142.651 24.4893 142.06 24.844C140.388 25.8507 139.864 27.6546 140.312 29.3866C139.069 29.4546 137.848 29.5293 136.693 29.5213C135.589 29.5133 134.764 30.424 134.724 31.4906C134.357 41.208 134.033 50.928 133.717 60.648C133.68 61.8227 134.692 62.6653 135.792 62.7227C136.999 62.7867 138.213 62.872 139.431 62.9587C139.093 65.2373 139.14 67.5947 139.063 69.8827C139.024 70.9973 139.971 71.716 140.985 71.8053C141.735 71.8707 142.484 71.924 143.235 71.9853C142.549 77.5267 143.391 83.496 143.619 89C143.657 89.9467 144.345 90.6027 145.277 90.6587C146.253 90.7187 147.223 90.78 148.192 90.8227C149.057 109.531 145.781 130.883 136.66 148.155C136.015 137.912 132.385 127.792 125.551 119.283C107.808 97.2 71.168 96.7373 54.4557 120.284C44.5047 134.304 44.238 152.979 53.6901 167.337C62.9588 181.419 81.1266 186.51 97.0706 184.224C110.335 182.321 121.833 174.584 130.609 164.619C126.485 179.131 114.867 191.077 100.932 196.551C83.9746 203.21 64.5541 198.669 49.8541 188.873C18.7407 168.14 10.1412 125.267 17.8245 90.8187C18.7459 90.7747 19.6677 90.7147 20.5964 90.6587C21.5281 90.6027 22.2161 89.9467 22.2552 89C22.4828 83.496 23.324 77.5267 22.6391 71.9853C23.3885 71.924 24.1385 71.8707 24.888 71.8053C25.903 71.716 26.8489 70.9973 26.8109 69.8827C26.7328 67.5947 26.7802 65.2373 26.4426 62.9587C27.6598 62.872 28.874 62.7867 30.0806 62.7227C31.1806 62.6653 32.1937 61.8227 32.1557 60.648C31.8401 50.928 31.5156 41.208 31.1494 31.4906C31.1088 30.424 30.2844 29.5133 29.1802 29.5213C28.0254 29.5293 26.8036 29.4546 25.562 29.3866C26.0093 27.6546 25.4849 25.8507 23.813 24.844C23.2229 24.4893 22.5188 24.368 21.8104 24.3213C22.3906 21.9266 21.9656 19.28 21.9208 16.808C21.8656 13.8 22.1838 10.3973 21.3473 7.45331C21.7432 6.91198 21.8833 6.16131 21.5287 5.51998C21.0084 4.58264 20.1036 3.82931 19.3672 3.05731C18.5885 2.23998 17.6973 1.24265 16.5702 0.958648C16.3948 0.914648 16.2333 0.914655 16.0797 0.931988C15.9265 0.914655 15.765 0.914648 15.5896 0.958648C14.4625 1.24265 13.5713 2.23998 12.7926 3.05731C12.0562 3.82931 11.1516 4.58264 10.6312 5.51998C10.276 6.16131 10.4166 6.91198 10.8125 7.45331C9.97545 10.3973 10.2937 13.8 10.2391 16.808C10.1937 19.28 9.76932 21.9266 10.3489 24.3213C9.64118 24.368 8.93692 24.4893 8.34639 24.844C6.67452 25.8507 6.15052 27.6546 6.59785 29.3866C5.35625 29.4546 4.13439 29.5293 2.97972 29.5213C1.87545 29.5133 1.05052 30.424 1.01038 31.4906C0.64425 41.208 0.319717 50.928 0.00411674 60.648C-0.0344166 61.8227 0.978648 62.6653 2.07918 62.7227C3.28545 62.7867 4.49945 62.872 5.71665 62.9587C5.37972 65.2373 5.42705 67.5947 5.34892 69.8827C5.31092 70.9973 6.25678 71.716 7.27185 71.8053C8.02078 71.8707 8.77132 71.924 9.52078 71.9853C8.83598 77.5267 9.67651 83.496 9.90465 89C9.94371 89.9467 10.6317 90.6027 11.5631 90.6587C12.3651 90.708 13.1615 90.764 13.9568 90.8067C5.66825 121.944 12.8432 156.728 34.1672 181.143C54.2073 204.088 89.5586 212.445 115.253 193.971C127.7 185.023 134.952 171.357 136.461 157.08C137.469 155.604 138.439 154.111 139.333 152.592C150.161 134.233 153.039 111.761 152.005 90.804C152.771 90.7613 153.537 90.7053 154.311 90.6587C155.241 90.6027 155.929 89.9467 155.968 89C156.196 83.496 157.037 77.5267 156.352 71.9853C157.103 71.924 157.852 71.8707 158.601 71.8053C159.616 71.716 160.563 70.9973 160.524 69.8827C160.447 67.5947 160.493 65.2373 160.156 62.9587C161.373 62.872 162.588 62.7867 163.795 62.7227C164.895 62.6653 165.908 61.8227 165.869 60.648C165.553 50.928 165.229 41.208 164.863 31.4906Z" fill="#333333"/>
</svg>
