<svg width="130" height="131" viewBox="0 0 158 160" fill="none" xmlns="http://www.w3.org/2000/svg">
<path d="M13.832 127.701C11.1987 122.424 9.72802 116.624 9.24669 110.768C8.88002 106.305 9.58802 101.844 10.88 97.5827C11.8227 99.3374 12.9066 101.02 14.1066 102.596C13.3266 112.616 13.9027 122.913 16.36 132.257C15.4867 130.756 14.608 129.256 13.832 127.701Z" fill="white"/>
<path d="M50.7586 68.304C56.0599 66.3467 59.7546 72.0348 61.1213 76.1294C61.8706 78.3734 62.1879 80.8588 62.2813 83.4268C61.6026 87.5454 61.6706 91.9894 61.7506 96.2507C61.7119 97.004 61.68 97.7441 61.6653 98.4614C61.5093 105.993 61.3533 113.527 61.196 121.06C61.064 127.464 60.0573 134.907 61.3293 141.372C61.0946 143.236 60.7093 145.025 60.0906 146.673C58.576 150.715 54.6773 156.265 49.4506 154.117C48.2199 153.612 47.4013 152.771 46.4133 152.267C46.4066 151.62 46.3853 150.995 46.3866 150.439C46.3946 147.399 46.3853 144.359 46.3786 141.317C46.9253 141.619 47.4906 141.872 48.0226 142.075C50.3426 142.953 52.2399 142.959 54.4973 141.965C55.0839 141.708 54.9106 140.744 54.3213 140.617C52.6813 140.268 50.9813 139.833 49.3746 139.349C48.296 139.024 47.3573 138.356 46.3746 137.828C46.3746 137.511 46.376 137.193 46.3746 136.875C46.3626 133.841 46.344 130.808 46.3293 127.773L46.6613 127.933C47.7799 128.484 49.1146 129.411 50.3933 128.997C51.064 128.78 51.2679 128.12 50.9973 127.509C50.4639 126.307 48.8293 125.932 47.7 125.469C47.264 125.291 46.7946 125.081 46.3146 124.925C46.2999 122.188 46.2893 119.449 46.2746 116.711C48.768 117.476 51.644 117.337 53.788 116.04C54.3626 115.692 54.3426 114.625 53.5866 114.497C52.1293 114.251 50.7453 114.22 49.2693 114.239C48.2653 114.251 47.2639 114.157 46.2613 114.073C46.2573 113.385 46.2546 112.697 46.2506 112.009C46.2399 110.076 46.2466 108.137 46.2506 106.199C46.5693 106.273 46.8906 106.339 47.2106 106.395C47.8706 106.512 49.1813 106.303 49.4 105.508C49.6026 104.772 48.5413 103.929 47.9293 103.789C47.372 103.661 46.8146 103.548 46.2559 103.499C46.2653 101.228 46.2799 98.956 46.2919 96.6814C49.0146 97.1374 52.3453 97.3081 54.5573 96.0801C55.1493 95.7507 55.0933 94.9174 54.5573 94.576C52.4253 93.22 49.0586 93.2241 46.3093 93.5254C46.3186 91.4107 46.3226 89.2947 46.316 87.1801C48.1293 87.0707 50.2199 86.6014 49.8119 85.1161C49.5239 84.0721 48.232 84.0307 47.3653 84.1467C47.0053 84.1947 46.6506 84.2494 46.2973 84.3134C46.2773 81.7921 46.248 79.2721 46.18 76.7574C46.8733 76.5628 47.5586 76.2881 48.2613 76.1081C50.0399 75.6534 51.8919 75.6601 53.6706 75.2001C54.0653 75.0987 54.248 74.5334 53.9213 74.2507C52.3306 72.8681 50.6373 72.7201 48.5919 73.0134C47.8279 73.1227 46.9186 73.3654 46.0866 73.7521C46.0439 72.6308 45.9759 71.5147 45.9226 70.3947C47.9053 70.5107 48.8746 68.9987 50.7586 68.304Z" fill="white"/>
<path d="M20.9519 81.756C21.9266 81.1587 22.5253 80.2294 23.4773 79.3294C24.8106 78.0721 26.2119 76.8814 27.7732 75.9107C30.0586 74.4894 32.5146 73.616 34.9359 72.5787C34.9052 73.1933 34.8773 73.8014 34.8319 74.384C34.3213 81 35.4573 86.88 37.8853 92.9427C37.9719 93.1587 38.2626 93.1241 38.2866 92.8881C38.8612 87.2414 38.4186 81.8881 38.4092 76.2214C38.4066 74.1134 39.0039 71.7134 39.0812 69.4587C40.3039 68.1054 41.9292 67.7601 41.9012 70.7934C41.8812 72.9454 41.8639 75.0974 41.8786 77.2494C41.9066 81.5534 41.9359 85.8587 41.9639 90.1627C42.0239 98.9521 42.0746 107.741 42.1479 116.531C42.2252 125.572 42.2959 134.615 42.3892 143.657C42.4119 145.917 42.4532 148.179 42.4892 150.439C42.5546 154.529 40.1946 152.393 40.1466 150.089C40.0639 149.672 40.0052 149.288 39.9586 149.036C39.7532 147.915 39.4133 146.536 39.7266 145.383C39.8439 141.349 39.7372 137.296 39.7345 133.295C39.7292 126.107 40.4066 118.696 39.0786 111.591C39.0079 111.212 38.4306 111.239 38.3426 111.591C36.7612 117.905 36.7799 124.659 36.5199 131.135C36.2786 137.092 35.5519 143.104 35.6386 149.084C33.4053 148.152 31.1572 147.316 29.0532 146.008C27.4919 145.037 26.0919 143.847 24.7586 142.589C23.5519 141.449 22.9039 140.271 21.3479 139.771C19.8026 130.145 17.6226 120.879 17.3773 111.013C17.3386 109.452 17.3572 107.897 17.4026 106.345C18.1972 107.125 19.0226 107.857 19.8786 108.533C19.5612 109.741 19.4906 111.016 19.6906 112.16C20.7213 118.027 27.1293 120.616 32.2079 117.841C37.1706 115.129 37.1973 108.052 33.4319 104.451C31.4626 102.567 28.6052 101.943 26.0372 102.721C25.5785 102.86 25.1172 103.076 24.6705 103.336C23.9505 103.611 23.2799 104.024 22.6599 104.467C20.9573 102.323 19.3919 100.233 18.0012 98.0961C18.6265 92.6041 19.6586 87.1627 20.9519 81.756Z" fill="white"/>
<path d="M24.8027 107.559L25.0533 107.329C26.532 106.512 27.9867 106 29.872 106.951C32.5934 108.32 32.5267 111.847 30.6694 113.851C28.3854 116.315 24.5161 114.515 23.6601 111.748C23.1907 110.227 23.7627 108.669 24.8027 107.559Z" fill="white"/>
<path d="M16.3039 87.5094C15.9039 89.3894 15.5506 91.3094 15.2373 93.2548C14.8173 92.3934 14.4253 91.5107 14.0613 90.6001C14.7613 89.5361 15.5213 88.5187 16.3039 87.5094Z" fill="white"/>
<path d="M143.729 90.6001C143.365 91.5107 142.973 92.3934 142.553 93.2548C142.24 91.3094 141.887 89.3894 141.487 87.5094C142.271 88.5187 143.029 89.5361 143.729 90.6001Z" fill="white"/>
<path d="M97.7 146.673C97.0813 145.025 96.696 143.236 96.4613 141.372C97.7333 134.907 96.7266 127.464 96.5946 121.06C96.4373 113.527 96.2813 105.993 96.1253 98.4614C96.1106 97.7441 96.0786 97.004 96.0399 96.2507C96.1199 91.9894 96.1879 87.5454 95.5093 83.4268C95.6026 80.8588 95.92 78.3734 96.6693 76.1294C98.036 72.0348 101.731 66.3467 107.032 68.304C108.916 68.9987 109.885 70.5107 111.868 70.3947C111.815 71.5147 111.747 72.6308 111.704 73.7521C110.872 73.3654 109.963 73.1227 109.199 73.0134C107.153 72.7201 105.46 72.8681 103.868 74.2507C103.543 74.5334 103.725 75.0987 104.12 75.2001C105.899 75.6601 107.751 75.6534 109.529 76.1081C110.232 76.2881 110.917 76.5628 111.611 76.7574C111.543 79.2721 111.513 81.7921 111.493 84.3134C111.14 84.2494 110.785 84.1947 110.425 84.1467C109.559 84.0307 108.267 84.0721 107.979 85.1161C107.571 86.6014 109.661 87.0707 111.475 87.1801C111.468 89.2947 111.472 91.4107 111.481 93.5254C108.732 93.2241 105.365 93.22 103.233 94.576C102.697 94.9174 102.641 95.7507 103.233 96.0801C105.445 97.3081 108.776 97.1374 111.499 96.6814C111.511 98.956 111.525 101.228 111.535 103.499C110.976 103.548 110.419 103.661 109.861 103.789C109.249 103.929 108.188 104.772 108.391 105.508C108.609 106.303 109.92 106.512 110.58 106.395C110.9 106.339 111.221 106.273 111.54 106.199C111.544 108.137 111.551 110.076 111.54 112.009C111.536 112.697 111.533 113.385 111.529 114.073C110.527 114.157 109.525 114.251 108.521 114.239C107.045 114.22 105.661 114.251 104.204 114.497C103.448 114.625 103.428 115.692 104.003 116.04C106.147 117.337 109.023 117.476 111.516 116.711C111.501 119.449 111.491 122.188 111.476 124.925C110.996 125.081 110.527 125.291 110.091 125.469C108.961 125.932 107.327 126.307 106.792 127.509C106.523 128.12 106.727 128.78 107.397 128.997C108.676 129.411 110.011 128.484 111.129 127.933L111.461 127.773C111.447 130.808 111.428 133.841 111.416 136.875C111.415 137.193 111.416 137.511 111.416 137.828C110.433 138.356 109.495 139.024 108.416 139.349C106.809 139.833 105.109 140.268 103.469 140.617C102.879 140.744 102.707 141.708 103.293 141.965C105.551 142.959 107.448 142.953 109.768 142.075C110.3 141.872 110.865 141.619 111.412 141.317C111.405 144.359 111.396 147.399 111.404 150.439C111.405 150.995 111.384 151.62 111.377 152.267C110.389 152.771 109.571 153.612 108.34 154.117C103.113 156.265 99.2146 150.715 97.7 146.673Z" fill="white"/>
<path d="M133.032 142.589C131.699 143.847 130.299 145.037 128.737 146.008C126.633 147.316 124.385 148.152 122.152 149.084C122.239 143.104 121.512 137.092 121.271 131.135C121.011 124.659 121.029 117.905 119.448 111.591C119.36 111.239 118.783 111.212 118.712 111.591C117.384 118.696 118.061 126.107 118.056 133.295C118.053 137.296 117.947 141.349 118.064 145.383C118.377 146.536 118.037 147.915 117.832 149.036C117.785 149.288 117.727 149.672 117.643 150.089C117.596 152.393 115.236 154.529 115.301 150.439C115.337 148.179 115.379 145.917 115.401 143.657C115.495 134.615 115.565 125.572 115.643 116.531C115.716 107.741 115.767 98.9521 115.827 90.1627C115.855 85.8587 115.884 81.5534 115.912 77.2494C115.927 75.0974 115.909 72.9454 115.889 70.7934C115.861 67.7601 117.487 68.1054 118.709 69.4587C118.785 71.7134 119.384 74.1134 119.381 76.2214C119.372 81.8881 118.929 87.2414 119.504 92.8881C119.528 93.1241 119.819 93.1587 119.905 92.9427C122.333 86.88 123.469 81 122.959 74.384C122.913 73.8014 122.885 73.1933 122.855 72.5787C125.276 73.616 127.732 74.4894 130.017 75.9107C131.579 76.8814 132.98 78.0721 134.313 79.3294C135.265 80.2294 135.864 81.1587 136.839 81.756C138.132 87.1627 139.164 92.6041 139.789 98.0961C138.399 100.233 136.833 102.323 135.131 104.467C134.511 104.024 133.84 103.611 133.12 103.336C132.673 103.076 132.212 102.86 131.753 102.721C129.185 101.943 126.328 102.567 124.359 104.451C120.593 108.052 120.62 115.129 125.583 117.841C130.661 120.616 137.069 118.027 138.1 112.16C138.3 111.016 138.229 109.741 137.912 108.533C138.768 107.857 139.593 107.125 140.388 106.345C140.433 107.897 140.452 109.452 140.413 111.013C140.168 120.879 137.988 130.145 136.443 139.771C134.887 140.271 134.239 141.449 133.032 142.589Z" fill="white"/>
<path d="M134.131 111.748C133.275 114.515 129.405 116.315 127.121 113.851C125.264 111.847 125.197 108.32 127.919 106.951C129.804 106 131.259 106.512 132.737 107.329L132.988 107.559C134.028 108.669 134.6 110.227 134.131 111.748Z" fill="white"/>
<path d="M148.544 110.768C148.063 116.624 146.592 122.424 143.959 127.701C143.183 129.256 142.304 130.756 141.431 132.257C143.888 122.913 144.464 112.616 143.684 102.596C144.884 101.02 145.968 99.3374 146.911 97.5827C148.203 101.844 148.911 106.305 148.544 110.768Z" fill="white"/>
<path d="M24.224 63.0734C23.904 63.3 23.4479 63.0427 22.2173 62.3467C20.4413 61.3401 18.6666 60.3347 16.8839 59.3427C13.3173 57.3587 9.73327 55.4014 6.1146 53.5134C5.33594 53.1067 7.99863 47.744 9.47463 44.8347C11.8373 46.7093 14.6693 48.0547 17.3039 49.4747C20.8426 51.3841 24.4159 53.2334 27.9893 55.0814C26.6173 57.6867 25.2146 60.3307 24.224 63.0734Z" fill="white"/>
<path d="M103.304 19.8841C98.5999 17.8481 92.884 16.1561 86.952 15.2747C84.3453 14.8147 81.64 14.6081 78.896 14.6307C76.1507 14.6081 73.4453 14.8147 70.8386 15.2747C64.9066 16.1561 59.1906 17.8481 54.4866 19.8841C41.7173 25.4134 31.0426 34.5161 23.9013 46.4081C22.6693 45.7774 21.4399 45.1387 20.2066 44.5081C18.9053 43.8414 17.588 43.1521 16.2466 42.5147C19.5733 37.6601 22.4706 32.6001 26.4186 28.0761C31.6306 22.1041 38.036 17.3361 44.8853 13.4201C54.1067 8.1494 63.7773 5.91606 73.684 5.38139C75.4266 5.29472 77.1627 5.26007 78.896 5.25607C80.628 5.26007 82.3639 5.29472 84.1066 5.38139C94.0133 5.91606 103.684 8.1494 112.905 13.4201C119.755 17.3361 126.16 22.1041 131.372 28.0761C135.32 32.6001 138.217 37.6601 141.544 42.5147C140.203 43.1521 138.885 43.8414 137.584 44.5081C136.351 45.1387 135.121 45.7774 133.889 46.4081C126.748 34.5161 116.073 25.4134 103.304 19.8841Z" fill="white"/>
<path d="M151.676 53.5134C148.057 55.4014 144.473 57.3587 140.907 59.3427C139.124 60.3347 137.349 61.3401 135.573 62.3467C134.343 63.0427 133.887 63.3 133.567 63.0734C132.576 60.3307 131.173 57.6867 129.801 55.0814C133.375 53.2334 136.948 51.3841 140.487 49.4747C143.121 48.0547 145.953 46.7093 148.316 44.8347C149.792 47.744 152.455 53.1067 151.676 53.5134Z" fill="white"/>
<path d="M16.884 59.3427C18.6666 60.3347 20.4413 61.3401 22.2173 62.3467C23.448 63.0427 23.904 63.3 24.224 63.0734C25.2147 60.3307 26.6173 57.6867 27.9893 55.0814C27.3226 54.736 26.6573 54.3894 25.992 54.0441C25.672 54.5134 25.36 54.96 25.0547 55.3427C21.4213 59.888 12.9386 53.4281 7.3253 49.2627C6.36797 51.3814 5.66396 53.2787 6.11462 53.5134C9.73329 55.4014 13.3173 57.3587 16.884 59.3427Z" fill="#A2C0CB"/>
<path d="M29.3747 109.715L29.3307 109.724L29.1147 109.717L28.8867 109.653C28.8787 109.637 28.7961 109.588 28.6321 109.501L28.4214 109.407L28.3614 109.313C27.9174 108.576 27.5547 107.145 26.668 106.621C26.1187 106.783 25.588 107.035 25.0533 107.329L24.8027 107.559C23.7627 108.669 23.1907 110.227 23.6601 111.748C24.5161 114.515 28.3854 116.315 30.6694 113.851C31.672 112.769 32.1294 111.249 31.9307 109.859C31.5814 109.723 31.208 109.636 30.816 109.615C30.312 109.588 29.892 109.603 29.3747 109.715Z" fill="#A2C0CB"/>
<path d="M143.939 114.372C143.721 120.501 142.929 126.557 141.431 132.257C142.304 130.756 143.183 129.256 143.959 127.701C146.592 122.424 148.063 116.624 148.544 110.768C148.692 108.971 148.657 107.175 148.489 105.392L148.429 105.544C147.125 108.583 145.459 111.439 143.939 114.372Z" fill="#A2C0CB"/>
<path d="M35.6387 149.084C35.552 143.104 36.2787 137.092 36.5187 131.135C36.644 128.043 36.708 124.887 36.9107 121.747C35.8013 124.581 34.3187 127.556 33.0627 129.98C31.6974 132.615 30.456 136.344 26.8387 134.305C22.124 131.647 19.7986 124.973 18.048 119.627C18.868 126.385 20.26 132.991 21.348 139.771C22.904 140.271 23.552 141.449 24.7587 142.589C26.092 143.847 27.492 145.037 29.0533 146.008C31.1573 147.316 33.4053 148.152 35.6387 149.084Z" fill="#A2C0CB"/>
<path d="M130.808 132.348C124.063 139.556 122.821 122.249 121.227 118.624C121.115 118.372 120.78 118.409 120.621 118.585C121.048 122.757 121.105 127.001 121.271 131.135C121.512 137.092 122.239 143.104 122.152 149.084C124.385 148.152 126.633 147.316 128.737 146.008C130.299 145.037 131.699 143.847 133.032 142.589C134.239 141.449 134.887 140.271 136.443 139.771C137.953 130.363 140.057 121.293 140.381 111.679C136.795 118.253 136.1 126.692 130.808 132.348Z" fill="#A2C0CB"/>
<path d="M111.404 150.439C111.396 147.399 111.405 144.359 111.412 141.317C110.865 141.617 110.3 141.872 109.768 142.075C107.448 142.953 105.551 142.959 103.293 141.965C103.148 141.901 103.051 141.795 102.993 141.668C102.933 142.767 102.884 143.865 102.816 144.964C102.647 147.709 102.437 150.452 102.215 153.193C103.928 154.492 105.999 155.08 108.34 154.117C109.571 153.612 110.389 152.771 111.377 152.267C111.384 151.62 111.405 150.995 111.404 150.439Z" fill="#A2C0CB"/>
<path d="M16.36 132.257C14.8067 126.349 14.008 120.06 13.8267 113.7C13.276 112.16 12.7267 110.621 12.22 109.072C11.3853 106.52 10.6733 103.889 9.93601 101.269C9.27868 104.387 8.98402 107.576 9.24669 110.768C9.72802 116.624 11.1987 122.424 13.832 127.701C14.608 129.256 15.4867 130.756 16.36 132.257Z" fill="#A2C0CB"/>
<path d="M110.091 125.469C110.527 125.291 110.996 125.081 111.476 124.925C111.491 122.188 111.501 119.449 111.516 116.711C109.023 117.476 106.147 117.337 104.003 116.04L103.856 115.913C103.729 124.277 103.477 132.629 103.031 140.98C103.12 140.804 103.268 140.66 103.469 140.617C105.109 140.268 106.809 139.833 108.416 139.349C109.495 139.024 110.433 138.356 111.416 137.828C111.416 137.511 111.415 137.193 111.416 136.875C111.428 133.841 111.447 130.808 111.461 127.773L111.129 127.933C110.011 128.484 108.676 129.411 107.397 128.997C106.727 128.78 106.523 128.12 106.792 127.509C107.327 126.307 108.961 125.932 110.091 125.469Z" fill="#A2C0CB"/>
<path d="M103.117 68.2188C102.987 72.8375 103.456 77.5734 103.497 81.9814C103.536 86.0988 103.625 90.2121 103.712 94.3254C105.848 93.2374 108.925 93.2454 111.481 93.5254C111.472 91.4108 111.468 89.2948 111.475 87.1801C109.661 87.0708 107.571 86.6015 107.979 85.1161C108.267 84.0721 109.559 84.0308 110.425 84.1468C110.785 84.1948 111.14 84.2495 111.493 84.3135C111.513 81.7921 111.541 79.2721 111.611 76.7575C110.917 76.5628 110.232 76.2881 109.529 76.1081C107.751 75.6535 105.899 75.6601 104.12 75.2001C103.725 75.0988 103.543 74.5334 103.868 74.2508C105.46 72.8681 107.153 72.7201 109.199 73.0135C109.963 73.1228 110.872 73.3655 111.704 73.7521C111.747 72.6308 111.815 71.5148 111.868 70.3948C109.885 70.5108 108.916 68.9988 107.032 68.3041C105.604 67.7774 104.297 67.8175 103.117 68.2188Z" fill="#A2C0CB"/>
<path d="M109.861 103.789C110.419 103.661 110.976 103.548 111.535 103.499C111.525 101.228 111.511 98.9561 111.499 96.6814C108.977 97.1041 105.947 97.2667 103.753 96.3147C103.872 102.032 103.968 107.751 103.897 113.477C103.892 113.869 103.883 114.261 103.877 114.655C103.965 114.581 104.069 114.52 104.204 114.497C105.661 114.251 107.045 114.22 108.521 114.239C109.525 114.251 110.527 114.157 111.529 114.073C111.533 113.385 111.536 112.697 111.54 112.009C111.551 110.076 111.544 108.137 111.54 106.199C111.221 106.273 110.9 106.339 110.58 106.395C109.92 106.512 108.609 106.303 108.391 105.508C108.188 104.772 109.249 103.929 109.861 103.789Z" fill="#A2C0CB"/>
<path d="M86.952 15.2747C92.884 16.1561 98.6 17.8481 103.304 19.8841C115.657 25.2334 126.039 33.9348 133.169 45.2628C133.641 36.3508 124.483 26.8868 118.115 21.9441C107.764 13.9121 94.8787 10.7454 81.9627 10.4921C69.988 10.2547 57.896 13.472 47.2453 18.8014C37.54 23.6574 26.5013 32.4147 21.1453 41.9867C20.6173 42.9294 20.476 43.8547 20.5867 44.704C21.692 45.2707 22.796 45.8414 23.9013 46.4081C31.0426 34.5161 41.7173 25.4134 54.4866 19.8841C59.1906 17.8481 64.9067 16.1561 70.8387 15.2747C73.4453 14.8147 76.1507 14.6081 78.8947 14.6307C81.64 14.6081 84.3453 14.8147 86.952 15.2747Z" fill="#A2C0CB"/>
<path d="M46.4133 152.267C47.4013 152.771 48.2199 153.612 49.4506 154.117C52.4199 155.339 54.9599 154.071 56.8786 152.009C56.7853 148.984 56.5746 145.952 56.5013 142.977C56.2613 133.257 56.02 123.536 55.78 113.816C55.54 104.089 55.0173 94.3681 54.4813 84.6548C54.1933 79.4508 54.3133 73.4721 53.3893 67.9414C52.5639 67.8641 51.6866 67.9614 50.7586 68.3041C48.8746 68.9987 47.9053 70.5107 45.9226 70.3947C45.9759 71.5147 46.0439 72.6308 46.0866 73.7521C46.9186 73.3654 47.8279 73.1228 48.5919 73.0134C50.6373 72.7201 52.3306 72.8681 53.9213 74.2507C54.248 74.5334 54.0653 75.0987 53.6706 75.2001C51.8919 75.6601 50.0399 75.6534 48.2613 76.1081C47.5586 76.2881 46.8733 76.5628 46.18 76.7574C46.248 79.2721 46.2773 81.7921 46.2973 84.3134C46.6506 84.2494 47.0053 84.1948 47.3653 84.1468C48.232 84.0308 49.5239 84.0721 49.8119 85.1161C50.2199 86.6014 48.1293 87.0708 46.316 87.1801C46.3226 89.2948 46.3186 91.4107 46.3093 93.5254C49.0586 93.2241 52.4253 93.2201 54.5573 94.5761C55.0933 94.9174 55.1493 95.7508 54.5573 96.0801C52.3453 97.3081 49.0146 97.1374 46.2919 96.6814C46.2799 98.9561 46.2653 101.228 46.2546 103.499C46.8146 103.548 47.372 103.661 47.9293 103.789C48.5413 103.929 49.6026 104.772 49.4 105.508C49.1813 106.303 47.8706 106.512 47.2106 106.395C46.8906 106.339 46.5693 106.273 46.2506 106.199C46.2466 108.137 46.2399 110.076 46.2506 112.009C46.2546 112.697 46.2573 113.385 46.2613 114.073C47.2639 114.157 48.2653 114.251 49.2693 114.239C50.7453 114.22 52.1293 114.251 53.5866 114.497C54.3426 114.625 54.3626 115.692 53.788 116.04C51.644 117.337 48.768 117.476 46.2746 116.711C46.2893 119.449 46.2999 122.188 46.3146 124.925C46.7946 125.081 47.264 125.291 47.7 125.469C48.8293 125.932 50.4639 126.307 50.9973 127.509C51.2679 128.12 51.064 128.78 50.3933 128.997C49.1146 129.411 47.7799 128.484 46.6613 127.933L46.3293 127.773C46.344 130.808 46.3626 133.841 46.3746 136.875C46.376 137.193 46.3746 137.511 46.3746 137.828C47.3573 138.356 48.296 139.024 49.3746 139.349C50.9813 139.833 52.6813 140.268 54.3213 140.617C54.9106 140.744 55.0839 141.708 54.4973 141.965C52.2399 142.959 50.3426 142.953 48.0226 142.075C47.5026 141.877 46.9533 141.629 46.4199 141.339C46.4319 141.885 46.4453 142.432 46.4573 142.977C46.524 145.823 46.4613 148.755 46.4933 151.687L46.4039 151.697C46.4079 151.887 46.412 152.072 46.4133 152.267Z" fill="#A2C0CB"/>
<path d="M133.321 55.404C132.772 54.976 132.265 54.5214 131.768 54.0601C131.112 54.4001 130.457 54.7414 129.801 55.0814C131.173 57.6867 132.576 60.3307 133.567 63.0734C133.887 63.3 134.343 63.0427 135.573 62.3467C137.349 61.3401 139.124 60.3347 140.907 59.3427C144.473 57.3587 148.057 55.4014 151.676 53.5134C152.097 53.2934 151.508 51.6174 150.645 49.6667C148.767 51.144 146.979 52.6841 145.308 53.8441C141.579 56.4334 137.449 58.6134 133.321 55.404Z" fill="#A2C0CB"/>
<path d="M134.131 111.748C134.377 110.948 134.331 110.14 134.085 109.391C133.251 109.499 132.347 109.875 131.619 110.177C130.975 110.445 130.425 110.555 129.84 110.605C129.259 109.977 128.645 109.375 127.877 109.024C127.283 108.751 126.579 108.761 126.047 109.065C125.485 110.637 125.923 112.557 127.121 113.851C129.405 116.315 133.275 114.515 134.131 111.748Z" fill="#A2C0CB"/>
<path d="M151.676 53.5134C148.057 55.4014 144.473 57.3587 140.907 59.3427C139.124 60.3347 137.349 61.3401 135.573 62.3467C134.343 63.0427 133.887 63.3 133.567 63.0734C132.576 60.3307 131.173 57.6867 129.801 55.0814C133.375 53.2334 136.948 51.3841 140.487 49.4747C143.121 48.0547 145.953 46.7094 148.316 44.8347C149.792 47.744 152.455 53.1067 151.676 53.5134ZM103.304 19.8841C98.6 17.8481 92.884 16.1561 86.952 15.2748C84.3454 14.8148 81.64 14.6081 78.896 14.6307C76.1507 14.6081 73.4454 14.8148 70.8387 15.2748C64.9067 16.1561 59.1907 17.8481 54.4867 19.8841C41.7173 25.4134 31.0427 34.5161 23.9013 46.4081C22.6693 45.7774 21.44 45.1387 20.2067 44.5081C18.9053 43.8414 17.588 43.152 16.2467 42.5147C19.5734 37.6601 22.4707 32.6 26.4187 28.076C31.6307 22.104 38.036 17.3361 44.8854 13.4201C54.1067 8.1494 63.7773 5.91606 73.684 5.38139C75.4267 5.29473 77.1627 5.26007 78.896 5.25607C80.628 5.26007 82.364 5.29473 84.1067 5.38139C94.0133 5.91606 103.684 8.1494 112.905 13.4201C119.755 17.3361 126.16 22.104 131.372 28.076C135.32 32.6 138.217 37.6601 141.544 42.5147C140.203 43.152 138.885 43.8414 137.584 44.5081C136.351 45.1387 135.121 45.7774 133.889 46.4081C126.748 34.5161 116.073 25.4134 103.304 19.8841ZM24.224 63.0734C23.904 63.3 23.448 63.0427 22.2173 62.3467C20.4413 61.3401 18.6667 60.3347 16.884 59.3427C13.3173 57.3587 9.73333 55.4014 6.11467 53.5134C5.336 53.1067 7.99869 47.744 9.47469 44.8347C11.8374 46.7094 14.6693 48.0547 17.304 49.4747C20.8427 51.3841 24.416 53.2334 27.9893 55.0814C26.6173 57.6867 25.2147 60.3307 24.224 63.0734ZM148.544 110.768C148.063 116.624 146.592 122.424 143.959 127.701C143.183 129.256 142.304 130.756 141.431 132.257C143.888 122.913 144.464 112.616 143.684 102.596C144.884 101.02 145.968 99.3374 146.911 97.5827C148.203 101.844 148.911 106.305 148.544 110.768ZM134.131 111.748C133.275 114.515 129.405 116.315 127.121 113.851C125.264 111.847 125.197 108.32 127.919 106.951C129.804 106 131.259 106.512 132.737 107.329L132.988 107.559C134.028 108.669 134.6 110.227 134.131 111.748ZM133.032 142.589C131.699 143.847 130.299 145.037 128.737 146.008C126.633 147.316 124.385 148.152 122.152 149.084C122.239 143.104 121.512 137.092 121.271 131.135C121.011 124.659 121.029 117.905 119.448 111.591C119.36 111.239 118.783 111.212 118.712 111.591C117.384 118.696 118.061 126.107 118.056 133.295C118.053 137.296 117.947 141.349 118.064 145.383C118.377 146.536 118.037 147.915 117.832 149.036C117.785 149.288 117.727 149.672 117.643 150.089C117.596 152.393 115.236 154.529 115.301 150.439C115.337 148.179 115.379 145.917 115.401 143.657C115.495 134.615 115.565 125.572 115.643 116.531C115.716 107.741 115.767 98.9521 115.827 90.1628C115.855 85.8588 115.884 81.5534 115.912 77.2494C115.927 75.0974 115.909 72.9454 115.889 70.7934C115.861 67.7601 117.487 68.1054 118.709 69.4587C118.785 71.7134 119.384 74.1134 119.381 76.2214C119.372 81.8881 118.929 87.2414 119.504 92.8881C119.528 93.1241 119.819 93.1587 119.905 92.9427C122.333 86.88 123.469 81 122.959 74.3841C122.913 73.8014 122.885 73.1934 122.855 72.5787C125.276 73.616 127.732 74.4894 130.017 75.9107C131.579 76.8814 132.98 78.0721 134.313 79.3294C135.265 80.2294 135.864 81.1587 136.839 81.7561C138.132 87.1627 139.164 92.6041 139.789 98.0961C138.399 100.233 136.833 102.323 135.131 104.467C134.511 104.024 133.84 103.611 133.12 103.336C132.673 103.076 132.212 102.86 131.753 102.721C129.185 101.943 126.328 102.567 124.359 104.451C120.593 108.052 120.62 115.129 125.583 117.841C130.661 120.616 137.069 118.027 138.1 112.16C138.3 111.016 138.229 109.741 137.912 108.533C138.768 107.857 139.593 107.125 140.388 106.345C140.433 107.897 140.452 109.452 140.413 111.013C140.168 120.879 137.988 130.145 136.443 139.771C134.887 140.271 134.239 141.449 133.032 142.589ZM97.7 146.673C97.0813 145.025 96.696 143.236 96.4613 141.372C97.7333 134.907 96.7267 127.464 96.5947 121.06C96.4373 113.527 96.2813 105.993 96.1253 98.4614C96.1107 97.7441 96.0787 97.004 96.04 96.2507C96.12 91.9894 96.188 87.5454 95.5093 83.4268C95.6027 80.8588 95.92 78.3734 96.6694 76.1294C98.036 72.0348 101.731 66.3467 107.032 68.304C108.916 68.9987 109.885 70.5107 111.868 70.3947C111.815 71.5147 111.747 72.6308 111.704 73.7521C110.872 73.3654 109.963 73.1227 109.199 73.0134C107.153 72.7201 105.46 72.8681 103.868 74.2507C103.543 74.5334 103.725 75.0987 104.12 75.2001C105.899 75.6601 107.751 75.6534 109.529 76.1081C110.232 76.2881 110.917 76.5628 111.611 76.7574C111.543 79.2721 111.513 81.7921 111.493 84.3134C111.14 84.2494 110.785 84.1947 110.425 84.1467C109.559 84.0307 108.267 84.0721 107.979 85.1161C107.571 86.6014 109.661 87.0707 111.475 87.1801C111.468 89.2947 111.472 91.4107 111.481 93.5254C108.732 93.2241 105.365 93.22 103.233 94.576C102.697 94.9174 102.641 95.7507 103.233 96.0801C105.445 97.3081 108.776 97.1374 111.499 96.6814C111.511 98.956 111.525 101.228 111.535 103.499C110.976 103.548 110.419 103.661 109.861 103.789C109.249 103.929 108.188 104.772 108.391 105.508C108.609 106.303 109.92 106.512 110.58 106.395C110.9 106.339 111.221 106.273 111.54 106.199C111.544 108.137 111.551 110.076 111.54 112.009C111.536 112.697 111.533 113.385 111.529 114.073C110.527 114.157 109.525 114.251 108.521 114.239C107.045 114.22 105.661 114.251 104.204 114.497C103.448 114.625 103.428 115.692 104.003 116.04C106.147 117.337 109.023 117.476 111.516 116.711C111.501 119.449 111.491 122.188 111.476 124.925C110.996 125.081 110.527 125.291 110.091 125.469C108.961 125.932 107.327 126.307 106.792 127.509C106.523 128.12 106.727 128.78 107.397 128.997C108.676 129.411 110.011 128.484 111.129 127.933L111.461 127.773C111.447 130.808 111.428 133.841 111.416 136.875C111.415 137.193 111.416 137.511 111.416 137.828C110.433 138.356 109.495 139.024 108.416 139.349C106.809 139.833 105.109 140.268 103.469 140.617C102.879 140.744 102.707 141.708 103.293 141.965C105.551 142.959 107.448 142.953 109.768 142.075C110.3 141.872 110.865 141.619 111.412 141.317C111.405 144.359 111.396 147.399 111.404 150.439C111.405 150.995 111.384 151.62 111.377 152.267C110.389 152.771 109.571 153.612 108.34 154.117C103.113 156.265 99.2147 150.715 97.7 146.673ZM143.729 90.6001C143.365 91.5107 142.973 92.3934 142.553 93.2548C142.24 91.3094 141.887 89.3894 141.487 87.5094C142.271 88.5187 143.029 89.5361 143.729 90.6001ZM16.304 87.5094C15.904 89.3894 15.5507 91.3094 15.2373 93.2548C14.8173 92.3934 14.4253 91.5107 14.0613 90.6001C14.7613 89.5361 15.5213 88.5187 16.304 87.5094ZM24.8027 107.559L25.0533 107.329C26.532 106.512 27.9867 106 29.872 106.951C32.5934 108.32 32.5267 111.847 30.6694 113.851C28.3854 116.315 24.516 114.515 23.66 111.748C23.1907 110.227 23.7627 108.669 24.8027 107.559ZM20.952 81.7561C21.9267 81.1587 22.5254 80.2294 23.4774 79.3294C24.8107 78.0721 26.212 76.8814 27.7733 75.9107C30.0587 74.4894 32.5147 73.616 34.936 72.5787C34.9054 73.1934 34.8774 73.8014 34.832 74.3841C34.3214 81 35.4574 86.88 37.8854 92.9427C37.972 93.1587 38.2627 93.1241 38.2867 92.8881C38.8613 87.2414 38.4187 81.8881 38.4093 76.2214C38.4067 74.1134 39.004 71.7134 39.0813 69.4587C40.304 68.1054 41.9293 67.7601 41.9013 70.7934C41.8813 72.9454 41.864 75.0974 41.8787 77.2494C41.9067 81.5534 41.936 85.8588 41.964 90.1628C42.024 98.9521 42.0747 107.741 42.148 116.531C42.2253 125.572 42.296 134.615 42.3893 143.657C42.412 145.917 42.4533 148.179 42.4893 150.439C42.5547 154.529 40.1947 152.393 40.1467 150.089C40.064 149.672 40.0053 149.288 39.9587 149.036C39.7533 147.915 39.4134 146.536 39.7267 145.383C39.844 141.349 39.7373 137.296 39.7347 133.295C39.7293 126.107 40.4067 118.696 39.0787 111.591C39.008 111.212 38.4307 111.239 38.3427 111.591C36.7613 117.905 36.78 124.659 36.52 131.135C36.2787 137.092 35.552 143.104 35.6387 149.084C33.4054 148.152 31.1573 147.316 29.0533 146.008C27.492 145.037 26.092 143.847 24.7587 142.589C23.552 141.449 22.904 140.271 21.348 139.771C19.8027 130.145 17.6227 120.879 17.3774 111.013C17.3387 109.452 17.3574 107.897 17.4027 106.345C18.1974 107.125 19.0227 107.857 19.8787 108.533C19.5613 109.741 19.4907 111.016 19.6907 112.16C20.7214 118.027 27.1294 120.616 32.208 117.841C37.1707 115.129 37.1974 108.052 33.432 104.451C31.4627 102.567 28.6053 101.943 26.0373 102.721C25.5787 102.86 25.1173 103.076 24.6707 103.336C23.9507 103.611 23.28 104.024 22.66 104.467C20.9574 102.323 19.392 100.233 18.0013 98.0961C18.6267 92.6041 19.6587 87.1627 20.952 81.7561ZM50.7587 68.304C56.06 66.3467 59.7547 72.0348 61.1214 76.1294C61.8707 78.3734 62.188 80.8588 62.2813 83.4268C61.6027 87.5454 61.6707 91.9894 61.7507 96.2507C61.712 97.004 61.68 97.7441 61.6654 98.4614C61.5094 105.993 61.3534 113.527 61.196 121.06C61.064 127.464 60.0574 134.907 61.3294 141.372C61.0947 143.236 60.7094 145.025 60.0907 146.673C58.576 150.715 54.6773 156.265 49.4507 154.117C48.22 153.612 47.4014 152.771 46.4134 152.267C46.4067 151.62 46.3853 150.995 46.3867 150.439C46.3947 147.399 46.3853 144.359 46.3787 141.317C46.9253 141.619 47.4907 141.872 48.0227 142.075C50.3427 142.953 52.24 142.959 54.4973 141.965C55.084 141.708 54.9107 140.744 54.3214 140.617C52.6814 140.268 50.9814 139.833 49.3747 139.349C48.296 139.024 47.3574 138.356 46.3747 137.828C46.3747 137.511 46.376 137.193 46.3747 136.875C46.3627 133.841 46.344 130.808 46.3294 127.773L46.6613 127.933C47.78 128.484 49.1147 129.411 50.3934 128.997C51.064 128.78 51.268 128.12 50.9973 127.509C50.464 126.307 48.8294 125.932 47.7 125.469C47.264 125.291 46.7947 125.081 46.3147 124.925C46.3 122.188 46.2894 119.449 46.2747 116.711C48.768 117.476 51.644 117.337 53.788 116.04C54.3627 115.692 54.3427 114.625 53.5867 114.497C52.1293 114.251 50.7454 114.22 49.2694 114.239C48.2654 114.251 47.264 114.157 46.2613 114.073C46.2573 113.385 46.2547 112.697 46.2507 112.009C46.24 110.076 46.2467 108.137 46.2507 106.199C46.5693 106.273 46.8907 106.339 47.2107 106.395C47.8707 106.512 49.1814 106.303 49.4 105.508C49.6027 104.772 48.5414 103.929 47.9294 103.789C47.372 103.661 46.8147 103.548 46.256 103.499C46.2653 101.228 46.28 98.956 46.292 96.6814C49.0147 97.1374 52.3454 97.3081 54.5574 96.0801C55.1494 95.7507 55.0934 94.9174 54.5574 94.576C52.4254 93.22 49.0587 93.2241 46.3093 93.5254C46.3187 91.4107 46.3227 89.2947 46.316 87.1801C48.1294 87.0707 50.22 86.6014 49.812 85.1161C49.524 84.0721 48.232 84.0307 47.3654 84.1467C47.0054 84.1947 46.6507 84.2494 46.2973 84.3134C46.2773 81.7921 46.248 79.2721 46.18 76.7574C46.8734 76.5628 47.5587 76.2881 48.2613 76.1081C50.04 75.6534 51.892 75.6601 53.6707 75.2001C54.0653 75.0987 54.248 74.5334 53.9214 74.2507C52.3307 72.8681 50.6373 72.7201 48.592 73.0134C47.828 73.1227 46.9187 73.3654 46.0867 73.7521C46.044 72.6308 45.976 71.5147 45.9227 70.3947C47.9053 70.5107 48.8747 68.9987 50.7587 68.304ZM13.832 127.701C11.1987 122.424 9.72803 116.624 9.2467 110.768C8.88003 106.305 9.58803 101.844 10.88 97.5827C11.8227 99.3374 12.9067 101.02 14.1067 102.596C13.3267 112.616 13.9027 122.913 16.36 132.257C15.4867 130.756 14.608 129.256 13.832 127.701ZM157.037 53.8014C156.596 49.3467 153.233 44.7801 151.121 40.9134C150.552 39.8694 149.196 39.6014 148.197 40.1467L148.033 40.2347C147.049 40.4214 146.085 40.6947 145.135 41.0227C140.043 27.1614 125.5 14.6841 112.929 8.58276C102.616 3.57743 90.6534 0.437412 78.896 0.600079C67.1374 0.437412 55.1747 3.57743 44.8613 8.58276C32.2907 14.6841 17.748 27.1614 12.656 41.0227C11.7053 40.6947 10.7414 40.4214 9.75738 40.2347L9.59338 40.1467C8.59471 39.6014 7.23869 39.8694 6.66936 40.9134C4.55736 44.7801 1.19467 49.3467 0.75334 53.8014C0.424007 57.132 6.46532 60.02 10.204 61.8147C5.39332 68.4627 5.87068 78.8201 7.05868 86.4628C7.42801 88.8428 8.10671 91.2427 9.02938 93.5827C7.02805 98.6054 6.15869 104.213 6.10269 109.017C5.98269 119.304 10.5453 133.679 18.9427 140.137L19.012 140.156C19.1853 140.569 19.3374 140.996 19.5187 141.404C19.9267 144.552 23.8867 147.076 26.2827 148.775C28.9934 150.697 32.5187 152.469 35.9387 152.863C36.0054 153.548 36.0787 154.232 36.2134 154.905C36.3 155.204 36.404 155.496 36.5027 155.789C36.6214 155.905 36.7427 156.02 36.8867 156.096C37.16 156.641 37.5107 157.155 37.976 157.62C40.3227 159.967 43.9307 159.703 45.6267 156.807C45.7294 156.632 45.8094 156.441 45.888 156.251C49.516 158.995 54.436 158.529 58.3294 155.907C64.0334 152.065 65.224 144.172 65.348 137.859C65.368 136.833 65.3813 135.807 65.4013 134.78C65.616 131.849 65.612 128.829 65.556 125.855C65.6613 119.415 65.7613 112.975 65.8667 106.535C65.984 99.3374 67.1893 90.7601 66.0507 83.3054C65.9467 77.3547 64.7347 70.504 59.696 66.8374C55.364 63.6867 49.5933 63.2908 45.7733 67.3521L45.7627 67.1347C45.5547 63.876 42.8854 61.4347 39.5854 62.3427C36.456 63.2027 35.3227 66.1187 35.2774 69.0161C31.668 69.2494 27.8773 71.1054 25.0013 73.1454C23.0613 74.52 20.096 76.4388 18.8187 78.7908C18.584 78.9694 18.392 79.2334 18.2867 79.5961C18.0147 80.5254 17.7614 81.48 17.5107 82.4374C15.7027 83.6147 14.1307 85.0947 12.7987 86.8174C12.6294 86.2214 12.4494 85.6401 12.3027 85.0161C10.556 77.5294 13.2974 71.1281 14.308 64.1587C17.9747 66.6574 23.396 70.5947 27.024 68.4694C28.4467 67.6361 29.464 66.0374 30.1107 64.2147C31.7507 61.3587 33.0227 58.1987 34.4533 55.3027C35.132 53.9294 34.8907 52.0681 33.4027 51.2947C31.8534 50.4894 30.2974 49.6988 28.744 48.8988C35.3294 38.7628 43.9027 30.9547 54.944 25.5947C62.084 22.1294 70.128 20.7347 77.98 20.3694C78.2854 20.3561 78.5907 20.3627 78.896 20.3561C79.2 20.3627 79.5054 20.3561 79.8107 20.3694C87.6627 20.7347 95.7067 22.1294 102.847 25.5947C113.888 30.9547 122.461 38.7628 129.047 48.8988C127.493 49.6988 125.937 50.4894 124.388 51.2947C122.9 52.0681 122.659 53.9294 123.337 55.3027C124.768 58.1987 126.04 61.3587 127.68 64.2147C128.327 66.0374 129.344 67.6361 130.767 68.4694C134.395 70.5947 139.816 66.6574 143.483 64.1587C144.493 71.1281 147.235 77.5294 145.487 85.0161C145.341 85.6401 145.161 86.2214 144.992 86.8174C143.66 85.0947 142.088 83.6147 140.28 82.4374C140.029 81.48 139.776 80.5254 139.504 79.5961C139.399 79.2334 139.207 78.9694 138.972 78.7908C137.695 76.4388 134.729 74.52 132.789 73.1454C129.913 71.1054 126.123 69.2494 122.513 69.0161C122.468 66.1187 121.333 63.2027 118.205 62.3427C114.905 61.4347 112.236 63.876 112.028 67.1347L112.017 67.3521C108.197 63.2908 102.427 63.6867 98.0947 66.8374C93.056 70.504 91.844 77.3547 91.74 83.3054C90.6013 90.7601 91.8067 99.3374 91.924 106.535C92.0294 112.975 92.1293 119.415 92.2347 125.855C92.1787 128.829 92.1747 131.849 92.3893 134.78C92.4093 135.807 92.4227 136.833 92.4427 137.859C92.5667 144.172 93.7573 152.065 99.4613 155.907C103.355 158.529 108.275 158.995 111.903 156.251C111.981 156.441 112.061 156.632 112.164 156.807C113.86 159.703 117.468 159.967 119.815 157.62C120.279 157.155 120.631 156.641 120.904 156.096C121.048 156.02 121.169 155.905 121.288 155.789C121.387 155.496 121.491 155.204 121.577 154.905C121.712 154.232 121.785 153.548 121.852 152.863C125.271 152.469 128.797 150.697 131.508 148.775C133.904 147.076 137.864 144.552 138.272 141.404C138.453 140.996 138.605 140.569 138.779 140.156L138.848 140.137C147.245 133.679 151.808 119.304 151.688 109.017C151.632 104.213 150.763 98.6054 148.761 93.5827C149.684 91.2427 150.363 88.8428 150.732 86.4628C151.92 78.8201 152.397 68.4627 147.587 61.8147C151.325 60.02 157.367 57.132 157.037 53.8014Z" fill="#333333"/>
</svg>
