<svg width="177" height="131" viewBox="0 0 207 151" fill="none" xmlns="http://www.w3.org/2000/svg">
<path d="M50.4661 15.3748C49.7864 15.3948 49.1068 15.4161 48.4271 15.4361C48.3724 14.5628 48.312 13.6907 48.2328 12.8201C49.0303 13.6227 49.7803 14.4721 50.4661 15.3748Z" fill="white"/>
<path d="M30.8427 44.2507C28.6167 44.3401 26.3907 44.4334 24.1645 44.5281C23.9927 42.6227 23.7995 40.7174 23.6287 38.8294C23.9573 38.8068 24.288 38.7814 24.6151 38.7614C26.5989 38.6441 28.5833 38.5254 30.5677 38.4081C30.6068 40.3641 30.686 42.3147 30.8427 44.2507Z" fill="white"/>
<path d="M34.2828 46.9787C33.7932 47.456 33.3177 47.94 32.8354 48.42C32.8838 47.9587 32.926 47.4961 32.9615 47.0321C33.4021 47.0134 33.8421 46.9974 34.2828 46.9787Z" fill="white"/>
<path d="M37.8735 23.6374C37.8937 24.3827 37.9057 25.1307 37.9151 25.8801C36.1901 25.9947 34.464 26.1041 32.7391 26.2188C32.7063 23.6814 32.6751 21.1427 32.6396 18.6014C34.326 18.556 36.0125 18.5068 37.6995 18.4601C37.764 20.1868 37.8255 21.912 37.8735 23.6374Z" fill="white"/>
<path d="M40.4208 18.384C42.4344 18.328 44.4473 18.2707 46.4604 18.2147C46.5896 20.0534 46.7306 21.8907 46.8354 23.7174C46.8645 24.232 46.8786 24.772 46.886 25.3227C44.8297 25.44 42.7734 25.5654 40.7172 25.6974C40.6521 23.2587 40.5578 20.8174 40.4208 18.384Z" fill="white"/>
<path d="M32.7912 29.8867C32.7864 29.644 32.7849 29.4001 32.7806 29.1574C34.4989 29.0588 36.2177 28.9561 37.936 28.8574C37.9412 31.0428 37.939 33.2347 37.9792 35.4214C36.315 35.5267 34.6516 35.632 32.9874 35.7374C32.9114 33.7774 32.8286 31.8227 32.7912 29.8867Z" fill="white"/>
<path d="M30.5322 35.8934C28.5598 36.0174 26.5874 36.1427 24.615 36.268C24.2229 36.292 23.8245 36.3094 23.4292 36.3294C23.3265 34.9361 23.2421 33.552 23.2161 32.1974C23.201 31.4014 23.2005 30.6014 23.1984 29.8C24.926 29.66 26.6437 29.524 28.338 29.42C29.0562 29.3747 29.775 29.3347 30.4937 29.292C30.5202 31.4747 30.5161 33.6801 30.5322 35.8934Z" fill="white"/>
<path d="M30.4333 26.3667C29.7349 26.4121 29.036 26.4601 28.338 26.5027C26.6495 26.6067 24.936 26.6828 23.2131 26.7548C23.2437 24.1388 23.3057 21.5081 23.3407 18.8801C24.2093 18.8441 25.0765 18.8121 25.9396 18.7894C27.3563 18.7521 28.7724 18.7094 30.1891 18.6707C30.2755 21.2387 30.3631 23.8054 30.4333 26.3667Z" fill="white"/>
<path d="M20.5306 26.8694C18.326 26.9614 16.1136 27.0787 13.9088 27.2374C13.85 24.56 13.8702 21.8814 13.926 19.2027C16.0521 19.1867 18.1838 19.1014 20.3084 19.0094C20.3286 21.6374 20.4312 24.2681 20.5306 26.8694Z" fill="white"/>
<path d="M20.6369 30.0066C20.6593 30.7386 20.6838 31.4747 20.6969 32.1973C20.7202 33.5573 20.713 34.9867 20.7041 36.4547C18.6473 36.5334 16.5656 36.6027 14.4926 36.7294C14.3369 35.508 14.2084 34.3094 14.1412 33.152C14.089 32.252 14.0697 31.3507 14.0328 30.4494C16.236 30.3374 18.4421 30.184 20.6369 30.0066Z" fill="white"/>
<path d="M20.6926 39.0521C20.6896 40.9001 20.7109 42.7854 20.8021 44.6628C19.1098 44.7228 17.3426 44.7254 15.5713 44.7814C15.3864 43.0227 15.1265 41.2494 14.8745 39.504C16.8197 39.3827 18.7656 39.2121 20.6926 39.0521Z" fill="white"/>
<path d="M24.3907 47.3761C26.6412 47.2881 28.8912 47.2001 31.1407 47.1055C31.2527 47.9761 31.3917 48.8401 31.5495 49.7001C30.5755 50.6868 29.6131 51.6774 28.6615 52.6694C27.299 52.6548 25.9375 52.6707 24.5755 52.7014C24.5834 50.9467 24.5178 49.1694 24.3907 47.3761Z" fill="white"/>
<path d="M33.0754 38.2588C34.7344 38.1614 36.3932 38.0628 38.0521 37.9641C38.1182 39.6748 38.2302 41.3774 38.4088 43.0668C38.0817 43.3721 37.751 43.6721 37.424 43.9775C35.9849 44.0361 34.5458 44.1001 33.1068 44.1575C33.1593 42.1975 33.136 40.2281 33.0754 38.2588Z" fill="white"/>
<path d="M40.6292 37.8107C41.6536 37.7507 42.6792 37.6894 43.7036 37.6294C42.5912 38.8041 41.4912 39.9921 40.4109 41.1934C40.4959 40.0721 40.5751 38.9481 40.6292 37.8107Z" fill="white"/>
<path d="M40.7234 35.248C40.7854 33.076 40.8156 30.8921 40.7901 28.6908C42.8292 28.5694 44.8677 28.4427 46.9057 28.3067C46.9302 30.176 47.0489 32.0641 47.4896 33.7721C47.114 34.1467 46.7349 34.5121 46.3614 34.8921C44.4822 35.0107 42.6026 35.1294 40.7234 35.248Z" fill="white"/>
<path d="M49.2869 28.1321C50.7401 28.0281 52.1937 27.9267 53.6453 27.8054C52.2552 29.1081 50.8683 30.44 49.4855 31.7894C49.5005 30.5867 49.4115 29.3534 49.2869 28.1321Z" fill="white"/>
<path d="M48.974 25.2147C48.923 24.7027 48.8798 24.2027 48.8511 23.7174C48.7432 21.8721 48.6683 20.0134 48.5807 18.1548C49.4834 18.1294 50.386 18.1054 51.288 18.0801C51.635 18.0694 51.8932 17.9374 52.1031 17.7601C52.9094 19.0974 53.5896 20.5161 54.1636 21.9841C54.1683 22.1227 54.1724 22.2481 54.1714 22.3481C54.164 23.2147 54.1422 24.0947 54.1828 24.968C52.4464 25.0347 50.7099 25.1241 48.974 25.2147Z" fill="white"/>
<path d="M39.7068 8.23871C40.3 8.16938 40.8917 8.09602 41.4683 7.98136C43.1667 8.79602 44.7385 9.80537 46.1797 10.9667C46.1708 12.4734 46.2156 13.9854 46.2979 15.4987C44.2812 15.5601 42.2645 15.6201 40.2484 15.6801C40.086 13.1774 39.9068 10.688 39.7068 8.23871Z" fill="white"/>
<path d="M37.362 8.4254C37.4167 10.8694 37.5052 13.3147 37.5979 15.7587C35.9287 15.8094 34.2588 15.8574 32.5896 15.9081C32.5421 13.4267 32.4584 10.9494 32.3438 8.47475C34.0146 8.48141 35.7016 8.4974 37.362 8.4254Z" fill="white"/>
<path d="M29.9948 5.63339L29.9938 5.86672C28.7678 5.99606 27.562 6.12539 26.4276 6.22805C25.7156 6.29205 24.9891 6.35471 24.2568 6.42004C26.0834 5.96004 28.0006 5.69606 29.9948 5.63339Z" fill="white"/>
<path d="M28.0026 8.57737C28.6521 8.5307 29.315 8.50668 29.9828 8.49202C29.989 10.9867 30.025 13.484 30.0994 15.9827C29.5578 16 29.0161 16.0134 28.4745 16.0307C26.7849 16.084 25.076 16.1053 23.3593 16.1227C23.364 13.7787 23.3254 11.44 23.1969 9.12138C24.8093 8.90271 26.4172 8.69204 28.0026 8.57737Z" fill="white"/>
<path d="M16.2948 9.91876C17.7958 9.82276 19.3057 9.63604 20.8145 9.43471C20.526 11.6454 20.3802 13.8921 20.3328 16.1574C18.2177 16.1854 16.0989 16.2387 13.9917 16.3534C14.0484 14.7067 14.1297 13.0614 14.2224 11.4161C14.8906 10.8868 15.5806 10.3854 16.2948 9.91876Z" fill="white"/>
<path d="M11.9765 13.4174C11.9281 14.4427 11.8755 15.4668 11.8417 16.4908C10.8869 16.5681 9.93599 16.6628 8.99066 16.7828C9.90306 15.5788 10.9088 14.4627 11.9765 13.4174Z" fill="white"/>
<path d="M6.3667 21.3788C6.63603 20.6988 6.9183 20.0214 7.21883 19.3508C7.30003 19.2188 7.39017 19.0935 7.47297 18.9628C8.9011 19.0948 10.3402 19.1494 11.7823 19.1761C11.7276 21.9201 11.7084 24.6641 11.7631 27.4094C10.0396 27.5654 8.33443 27.7854 6.6427 28.0481C6.50683 25.8241 6.3927 23.6094 6.3667 21.3788Z" fill="white"/>
<path d="M5.30732 24.4387C5.24212 25.7121 5.18598 26.9988 5.14998 28.2908C4.89478 28.3374 4.63438 28.3667 4.38025 28.4161C4.58332 27.0707 4.91252 25.7481 5.30732 24.4387Z" fill="white"/>
<path d="M6.7937 30.5373C8.47597 30.5893 10.1672 30.6 11.8688 30.5467C11.8994 31.4147 11.915 32.2827 11.9568 33.152C12.0136 34.3334 12.0473 35.5987 12.0874 36.9134C10.5114 37.056 8.94997 37.2573 7.4145 37.536C7.21877 35.6453 6.9869 33.7573 6.8781 31.9027C6.85157 31.4453 6.82237 30.9933 6.7937 30.5373Z" fill="white"/>
<path d="M4.90985 37.5054C4.21452 35.0787 4.00679 32.7227 4.15266 30.4227C4.47026 30.4467 4.79426 30.4454 5.11359 30.4641C5.09839 32.9814 5.19119 35.4961 5.50465 37.9334C5.36359 37.9667 5.22026 37.9934 5.07973 38.0294C5.02599 37.8534 4.95985 37.6814 4.90985 37.5054Z" fill="white"/>
<path d="M7.67811 44.1654L7.68385 44.1521C7.78065 42.6388 7.72451 41.1028 7.60358 39.5601C9.12078 39.6428 10.6473 39.6748 12.186 39.6268C12.2645 41.3894 12.3869 43.1907 12.6098 44.9534C11.2193 45.0787 9.84892 45.2748 8.54012 45.6161C8.23852 45.1414 7.95211 44.6574 7.67811 44.1654Z" fill="white"/>
<path d="M14.486 52.2733C12.8281 50.9573 11.3375 49.436 10.0427 47.7547C11.0448 47.856 12.0672 47.8867 13.0953 47.8854C13.4245 49.4427 13.8771 50.9213 14.486 52.2733Z" fill="white"/>
<path d="M15.4932 53.0134C15.7921 51.3521 15.8636 49.6041 15.7942 47.8134C17.562 47.7241 19.3202 47.5854 21.0073 47.5134C21.1817 49.3201 21.4546 51.0907 21.8666 52.7854C20.2526 52.8387 17.8473 52.6827 16.5156 53.7307C16.163 53.508 15.8328 53.2547 15.4932 53.0134Z" fill="white"/>
<path d="M26.4208 55.0521C25.8338 55.6801 25.2229 56.3081 24.6478 56.9361L24.363 56.8641C24.4254 56.2668 24.4792 55.6655 24.5136 55.0575C25.1489 55.0575 25.7849 55.0428 26.4208 55.0521Z" fill="white"/>
<path d="M22.5218 55.0641C22.6937 55.5667 22.8828 56.0587 23.0874 56.54C21.8448 56.2134 20.6145 55.8254 19.425 55.2988L19.3328 55.2534C20.3078 55.2187 21.2896 55.0841 22.0672 55.0654C22.2188 55.0628 22.3702 55.0667 22.5218 55.0641Z" fill="white"/>
<path d="M32.6989 67.92L32.4708 67.7534C29.35 64.924 23.1432 63.108 28.1833 58.1867C31.2145 55.2267 34.2426 52.2627 37.263 49.2907C38.1114 48.4561 38.9593 47.6268 39.8062 46.7988C40.8125 45.8321 41.8057 44.8494 42.7926 43.8574C43.7849 42.8707 44.7672 41.876 45.7349 40.8707C46.563 40.024 47.3917 39.1761 48.2265 38.3268C51.1984 35.3068 54.162 32.2787 57.1224 29.248C62.0442 24.208 63.8593 30.4147 66.6893 33.5347L66.8546 33.7641C63.526 37.4707 60.1896 41.1707 56.8817 44.8974C55.7104 46.2161 54.4973 47.4854 53.3677 48.8027C51.9942 50.2934 50.624 51.7774 49.2322 53.2161C47.3489 54.6401 45.6417 56.3401 43.8322 57.9467C40.1068 61.2534 36.4062 64.5907 32.6989 67.92Z" fill="white"/>
<path d="M102.964 119.797C93.892 112.537 84.0587 106.171 74.8973 99.0054C68.36 93.8908 62.1932 88.2347 55.8235 82.8787C50.1344 77.6841 44.3787 72.5441 38.2172 68.1241C40.9984 65.6428 43.7787 63.1588 46.5255 60.6388C48.8194 58.5361 51.3022 56.6374 53.1355 54.2001C54.9615 52.8268 56.4855 51.0881 58.0194 49.3374C58.7479 48.5627 59.4558 47.7721 60.1391 46.9641C62.4636 44.4201 64.7646 41.8534 67.06 39.2814C74.8774 50.1801 84.944 59.8187 93.5907 70.0401C96.8227 73.8601 99.968 77.7614 103.111 81.6641C103.957 82.7921 104.809 83.9187 105.647 85.0534C110.183 91.2041 113.951 98.0921 118.664 104.109C117.861 105.032 117.057 105.957 116.26 106.895C114.725 108.545 113.293 110.32 111.775 111.945C110.789 113 109.728 114.004 108.657 115.004C106.708 116.541 104.827 118.175 102.964 119.797Z" fill="white"/>
<path d="M110.547 122.849C109.985 121.981 109.355 121.156 108.665 120.403C110.556 118.732 112.409 117.013 114.097 115.163C116.189 113.255 118.115 111.141 119.989 108.996C120.691 110.733 122.336 112.117 123.576 113.549C125.593 115.877 127.607 118.208 129.619 120.539C127.849 121.888 125.807 123.503 124.255 125.319C122.439 126.871 120.824 128.913 119.475 130.684C117.144 128.671 114.813 126.657 112.485 124.641C111.843 124.084 111.207 123.447 110.547 122.849Z" fill="white"/>
<path d="M201.676 47.8907C199.687 48.104 197.692 48.3333 195.744 48.7173C191.369 38.4493 180.608 31.076 171.067 26.0827C162.681 21.6947 153.015 19.4987 144.169 23.668C136.015 27.5133 132.677 38.612 134.224 46.8854C134.928 50.6467 136.537 55.4707 138.88 59.948L138.999 60.1387C141.595 64.0374 144.833 67.452 147.896 70.9934C148.384 71.4507 148.873 71.9093 149.388 72.328C150.509 73.4227 151.643 74.5107 152.737 75.6547C157.029 80.148 161.04 84.8826 164.475 90.068C170.404 99.02 175.959 109.085 177.181 119.911C178.639 132.82 169.655 143.433 157.413 146.207C149.335 148.037 141.78 145.472 135.665 140.748C134.72 139.844 133.701 139.001 132.681 138.176C129.963 135.552 127.628 132.507 125.779 129.284C126.195 128.912 126.596 128.508 127.008 128.072C127.476 127.629 127.915 127.203 128.308 126.753L128.483 126.583C134.029 133.6 140.045 139.773 148.967 142.156C156.136 144.071 164.38 141.175 168.372 134.821C179.709 116.777 166.907 97.2214 154.449 83.8854C146.455 75.3267 137.94 67.4827 132.523 56.9173C126.377 44.9307 128.425 30.5293 139.957 22.868C150.644 15.768 164.215 18.532 174.815 24.0667C185.872 29.84 192.809 39.6947 201.676 47.8907Z" fill="white"/>
<path d="M7.67865 44.1654C7.95212 44.6574 8.23852 45.1414 8.54012 45.6161C9.84892 45.2748 11.2193 45.0787 12.6098 44.9534C12.3869 43.1907 12.2645 41.3894 12.186 39.6268C10.6473 39.6748 9.12078 39.6428 7.60358 39.5601C7.72451 41.1028 7.78065 42.6388 7.68385 44.1521L7.67865 44.1654Z" fill="#A2C0CB"/>
<path d="M11.9568 33.152C11.915 32.2827 11.8994 31.4147 11.8688 30.5467C10.1672 30.6 8.47597 30.5893 6.7937 30.5373C6.82237 30.9933 6.85157 31.4453 6.8781 31.9027C6.9869 33.7573 7.21877 35.6453 7.4145 37.536C8.94997 37.256 10.5114 37.056 12.0874 36.9134C12.0473 35.5987 12.0136 34.3334 11.9568 33.152Z" fill="#A2C0CB"/>
<path d="M13.9088 27.2374C14.7912 27.1747 15.6754 27.1414 16.5593 27.0908C15.8697 25.0054 15.3901 22.8427 15.0864 20.6881C15.0406 20.1854 14.9849 19.6827 14.9338 19.1814C14.5978 19.1867 14.262 19.2001 13.926 19.2027C13.8702 21.8814 13.85 24.56 13.9088 27.2374Z" fill="#A2C0CB"/>
<path d="M14.486 52.2733C13.8771 50.9213 13.4245 49.4427 13.0953 47.8854C12.0672 47.8867 11.0448 47.856 10.0421 47.7547C11.3374 49.436 12.8276 50.9573 14.486 52.2733Z" fill="#A2C0CB"/>
<path d="M11.7631 27.4094C11.7084 24.6641 11.7276 21.9201 11.7823 19.1761C10.3402 19.1494 8.9011 19.0948 7.47297 18.9628C7.39017 19.0935 7.30003 19.2188 7.21883 19.3508C6.9183 20.0214 6.63603 20.6988 6.3667 21.3788C6.39217 23.6094 6.50683 25.8241 6.6427 28.0481C8.33443 27.7854 10.0396 27.5654 11.7631 27.4094Z" fill="#A2C0CB"/>
<path d="M49.2322 53.2161C50.1838 52.2321 51.1202 51.2121 52.0598 50.1974C52.6682 47.5587 52.2354 45.0281 50.0833 42.8747C48.7978 41.5894 47.3812 40.92 45.8901 40.712L45.7349 40.8707C44.7672 41.8774 43.7849 42.8707 42.7926 43.8574C41.8057 44.8494 40.8125 45.8321 39.8062 46.7988C38.9593 47.6268 38.1114 48.4561 37.263 49.2907C34.2426 52.2627 31.2145 55.2267 28.1833 58.1867C23.1432 63.108 29.35 64.924 32.4708 67.7534L32.6989 67.92C36.4062 64.5907 40.1068 61.2534 43.8322 57.9467C45.6417 56.3401 47.3489 54.6401 49.2322 53.2161Z" fill="#A2C0CB"/>
<path d="M199.564 48.1387L199.349 47.8707C194.744 42.1467 189.321 37.1254 183.567 32.584C173.361 24.528 159.067 15.436 145.8 21.8174C133.705 27.6347 129.02 40.5587 133.231 53.028C135.467 59.6467 140.563 65.0094 145.208 70.0334C148.467 73.556 151.845 77.7187 155.531 81.3881C157.591 84.2227 159.905 86.8974 162.177 89.428C164.783 93.9534 168.339 98.3534 170.36 102.051C175.42 111.311 177.749 123.031 173.176 132.917C168.499 143.032 158.481 145.595 148.279 143.341C143.477 142.281 138.86 139.897 134.829 137.137C131.516 134.868 129.092 131.491 125.8 129.263L125.779 129.284C127.628 132.507 129.963 135.552 132.681 138.176C133.701 139.001 134.72 139.844 135.665 140.748C141.78 145.473 149.335 148.037 157.413 146.207C169.655 143.433 178.639 132.82 177.181 119.911C175.959 109.085 170.404 99.02 164.475 90.068C161.04 84.8827 157.029 80.1481 152.737 75.6547C151.643 74.5107 150.509 73.4227 149.388 72.328C148.873 71.9094 148.384 71.4507 147.896 70.9934C144.833 67.4521 141.595 64.0374 138.999 60.1387L138.88 59.948C136.537 55.4707 134.928 50.6467 134.224 46.8854C132.677 38.6121 136.015 27.5133 144.169 23.668C153.015 19.4987 162.681 21.6947 171.067 26.0827C180.608 31.0761 191.369 38.4494 195.744 48.7174C197.003 48.4694 198.281 48.2947 199.564 48.1387Z" fill="#A2C0CB"/>
<path d="M120.224 120.06C118.475 118.524 115.667 116.436 113.295 115.98C111.823 117.517 110.269 118.987 108.665 120.403C109.355 121.156 109.985 121.981 110.547 122.849C111.207 123.447 111.843 124.084 112.485 124.641C114.813 126.657 117.144 128.671 119.475 130.684C120.824 128.913 122.439 126.871 124.255 125.319L124.513 125.044C123.593 123.084 121.807 121.448 120.224 120.06Z" fill="#A2C0CB"/>
<path d="M20.7041 36.4547C20.7073 35.9174 20.7088 35.3907 20.7104 34.8654C20.4989 34.6 20.275 34.3427 20.074 34.072C19.1792 32.864 18.4354 31.5573 17.7964 30.1973C16.5412 30.2853 15.288 30.3854 14.0328 30.4494C14.0697 31.3507 14.089 32.252 14.1417 33.152C14.2084 34.3094 14.3369 35.508 14.4926 36.7294C16.5656 36.6027 18.6473 36.5334 20.7041 36.4547Z" fill="#A2C0CB"/>
<path d="M5.30732 24.4387C4.91252 25.7481 4.58332 27.0707 4.38025 28.4161C4.63438 28.3667 4.89478 28.3374 5.14945 28.2908C5.18598 26.9988 5.24265 25.7121 5.30732 24.4387Z" fill="#A2C0CB"/>
<path d="M5.07973 38.0294C5.22026 37.9934 5.36359 37.9667 5.50465 37.9334C5.19119 35.4961 5.09839 32.9814 5.11359 30.4641C4.79426 30.4454 4.47026 30.4467 4.15266 30.4227C4.00679 32.7227 4.21452 35.0787 4.90985 37.5054C4.95985 37.6814 5.02599 37.8534 5.07973 38.0294Z" fill="#A2C0CB"/>
<path d="M32.8354 48.42C33.3177 47.94 33.7932 47.456 34.2828 46.9787C33.8421 46.9974 33.4021 47.0134 32.9615 47.0321C32.926 47.4961 32.8838 47.9587 32.8354 48.42Z" fill="#A2C0CB"/>
<path d="M37.4246 43.9775C37.7511 43.6721 38.0817 43.3734 38.4088 43.0668L38.3817 42.7575C37.7355 43.1401 37.0917 43.5628 36.4536 44.0188C36.7771 44.0041 37.1006 43.9908 37.4246 43.9775Z" fill="#A2C0CB"/>
<path d="M14.2224 11.4161C14.1302 13.0614 14.0484 14.7067 13.9917 16.3534C14.2546 16.3387 14.5193 16.3334 14.7828 16.3214C14.8021 14.4721 14.9745 12.6441 15.0546 10.8147C14.7792 11.0187 14.4906 11.2041 14.2224 11.4161Z" fill="#A2C0CB"/>
<path d="M74.8973 99.0054C84.0587 106.171 93.892 112.537 102.964 119.797C103.967 118.924 104.977 118.051 106 117.187C105.876 115.56 105.048 113.988 104.011 112.779C93.9107 100.987 82.2574 90.5774 70.9747 79.8867C69.188 78.1934 67.3854 76.5121 65.5734 74.8388C66.796 75.0054 68.044 74.9174 69.252 74.4828C70.7467 73.9454 71.8427 72.7414 71.8427 71.0787C71.8427 69.6641 70.78 67.8894 69.252 67.6761C67.544 67.4361 65.6573 67.6334 64.5484 66.0481C64.1172 65.4307 63.95 64.7948 63.9042 64.0588C63.8599 63.3548 64.5156 62.8054 65.073 61.8481C65.8374 60.5321 65.4027 58.7361 64.0584 57.9787C61.623 56.6081 58.9177 57.5001 57.4807 59.8748C56.1798 62.0241 55.9688 64.4535 56.6115 66.8241C55.6194 65.9681 54.6303 65.1094 53.6265 64.2707C51.8453 62.7801 49.8042 61.0494 47.6136 59.6707C47.2495 59.9921 46.8839 60.3108 46.5255 60.6388C43.7787 63.1588 40.9984 65.6428 38.2172 68.1241C44.3787 72.5441 50.1344 77.6841 55.8235 82.8787C62.1932 88.2347 68.36 93.8908 74.8973 99.0054Z" fill="#A2C0CB"/>
<path d="M34.8683 44.0841C34.6563 44.0374 34.4489 44.0041 34.2344 43.9495C33.8541 43.8521 33.4855 43.7201 33.112 43.6028C33.1084 43.7881 33.112 43.9721 33.1068 44.1575C33.6937 44.1335 34.2812 44.1081 34.8683 44.0841Z" fill="#A2C0CB"/>
<path d="M26.4208 55.0521C25.7849 55.0428 25.1489 55.0575 24.5136 55.0575C24.4792 55.6655 24.4254 56.2668 24.363 56.8641L24.6478 56.9361C25.2229 56.3081 25.8338 55.6801 26.4208 55.0521Z" fill="#A2C0CB"/>
<path d="M24.5755 52.7014C25.9375 52.6707 27.299 52.6548 28.6615 52.6694C29.6131 51.6774 30.576 50.6868 31.5495 49.7001C31.3917 48.8401 31.2527 47.9761 31.1407 47.1055C28.8912 47.2001 26.6412 47.2881 24.3907 47.3761C24.5178 49.1694 24.5834 50.9467 24.5755 52.7014Z" fill="#A2C0CB"/>
<path d="M20.8021 44.6628C20.7109 42.7854 20.6896 40.9001 20.6926 39.0521C18.7656 39.2121 16.8197 39.3827 14.8745 39.504C15.1265 41.2494 15.3864 43.0227 15.5713 44.7814C17.3426 44.7254 19.1098 44.7228 20.8021 44.6628Z" fill="#A2C0CB"/>
<path d="M11.8417 16.4908C11.8755 15.4668 11.9281 14.4427 11.9765 13.4174C10.9088 14.4627 9.90306 15.5788 8.99066 16.7828C9.93599 16.6628 10.8869 16.5681 11.8417 16.4908Z" fill="#A2C0CB"/>
<path d="M24.1645 44.5281C26.3907 44.4334 28.6167 44.3401 30.8427 44.2507C30.8016 43.7427 30.7787 43.2308 30.7473 42.7214C28.4781 41.7241 26.3593 40.3841 24.4661 38.7721C24.1875 38.7894 23.9079 38.8108 23.6287 38.8294C23.7995 40.7174 23.9927 42.6227 24.1645 44.5281Z" fill="#A2C0CB"/>
<path d="M21.8666 52.7854C21.4546 51.0907 21.1817 49.3201 21.0073 47.5134C19.3202 47.5854 17.562 47.7241 15.7948 47.8134C15.8636 49.6041 15.7921 51.3521 15.4932 53.0134C15.8322 53.2547 16.163 53.508 16.5156 53.7307C17.8473 52.6827 20.2526 52.8387 21.8666 52.7854Z" fill="#A2C0CB"/>
<path d="M22.5218 55.0641C22.3702 55.0667 22.2188 55.0628 22.0672 55.0654C21.2896 55.0854 20.3078 55.2187 19.3328 55.2534L19.425 55.2988C20.6145 55.8254 21.8448 56.2134 23.0874 56.54C22.8828 56.0587 22.6937 55.5667 22.5218 55.0641Z" fill="#A2C0CB"/>
<path d="M59.1708 69.6414C57.2473 66.6454 58.5901 63.8533 60.4036 61.468C62.789 59.6547 65.5813 58.312 68.5773 60.2347C73.132 63.1587 72.7307 67.5947 70.2573 71.3214C66.5307 73.7947 62.0937 74.196 59.1708 69.6414ZM72.86 74.0054L72.9026 73.9667L72.9413 73.9241C77.4373 69.6281 76.7386 61.0267 71.3333 57.5294C68.6706 55.8054 64.5792 54.7067 61.6625 56.6507C60.5041 57.4227 59.2718 58.3241 58.3604 59.4241C57.2598 60.3361 56.3584 61.5694 55.5864 62.7267C53.6421 65.6441 54.7412 69.7347 56.4645 72.3974C59.9625 77.8027 68.5626 78.5027 72.86 74.0054Z" fill="#333333"/>
<path d="M201.676 47.8907C199.687 48.104 197.692 48.3333 195.744 48.7173C191.369 38.4493 180.608 31.076 171.067 26.0827C162.681 21.6947 153.015 19.4987 144.169 23.668C136.015 27.5133 132.677 38.612 134.224 46.8854C134.928 50.6467 136.537 55.4707 138.88 59.948L138.999 60.1387C141.595 64.0374 144.833 67.452 147.896 70.9934C148.384 71.4507 148.873 71.9093 149.388 72.328C150.509 73.4227 151.643 74.5107 152.737 75.6547C157.029 80.148 161.04 84.8827 164.475 90.068C170.404 99.02 175.959 109.085 177.181 119.911C178.639 132.82 169.655 143.433 157.413 146.207C149.335 148.037 141.78 145.472 135.665 140.748C134.72 139.844 133.701 139.001 132.681 138.176C129.963 135.552 127.628 132.507 125.779 129.284C126.195 128.912 126.596 128.508 127.008 128.072C127.476 127.629 127.915 127.203 128.308 126.753L128.483 126.583C134.029 133.6 140.045 139.773 148.967 142.156C156.136 144.071 164.38 141.175 168.372 134.821C179.709 116.777 166.907 97.2214 154.449 83.8854C146.455 75.3267 137.94 67.4827 132.523 56.9173C126.377 44.9307 128.425 30.5293 139.957 22.868C150.644 15.768 164.215 18.532 174.815 24.0667C185.872 29.84 192.809 39.6947 201.676 47.8907ZM110.547 122.849C109.985 121.981 109.355 121.156 108.665 120.403C110.556 118.732 112.409 117.013 114.097 115.163C116.189 113.255 118.115 111.141 119.989 108.996C120.691 110.733 122.336 112.117 123.576 113.549C125.593 115.877 127.607 118.208 129.619 120.539C127.849 121.888 125.807 123.503 124.255 125.319C122.439 126.871 120.824 128.913 119.475 130.684C117.144 128.671 114.813 126.657 112.485 124.641C111.843 124.084 111.207 123.447 110.547 122.849ZM102.964 119.797C93.892 112.537 84.0586 106.171 74.8973 99.0054C68.36 93.8907 62.1932 88.2347 55.8234 82.8787C50.1344 77.684 44.3786 72.544 38.2172 68.124C40.9984 65.6427 43.7786 63.1587 46.5254 60.6387C48.8193 58.536 51.3021 56.6374 53.1354 54.2C54.9614 52.8267 56.4854 51.088 58.0193 49.3373C58.7478 48.5627 59.4557 47.772 60.139 46.964C62.4636 44.42 64.7645 41.8533 67.06 39.2813C74.8773 50.18 84.944 59.8187 93.5906 70.04C96.8226 73.86 99.968 77.7614 103.111 81.664C103.957 82.792 104.809 83.9187 105.647 85.0533C110.183 91.204 113.951 98.092 118.664 104.109C117.861 105.032 117.057 105.957 116.26 106.895C114.725 108.545 113.293 110.32 111.775 111.945C110.789 113 109.728 114.004 108.657 115.004C106.708 116.541 104.827 118.175 102.964 119.797ZM32.6989 67.92L32.4708 67.7533C29.35 64.924 23.1432 63.108 28.1833 58.1867C31.2145 55.2267 34.2426 52.2627 37.263 49.2907C38.1114 48.456 38.9593 47.6267 39.8062 46.7987C40.8125 45.8321 41.8057 44.8494 42.7926 43.8574C43.7849 42.8707 44.7672 41.876 45.7349 40.8707C46.563 40.024 47.3917 39.176 48.2265 38.3267C51.1984 35.3067 54.162 32.2787 57.1224 29.248C62.0442 24.208 63.8593 30.4147 66.6893 33.5347L66.8546 33.764C63.526 37.4707 60.1896 41.1707 56.8817 44.8974C55.7104 46.216 54.4973 47.4854 53.3677 48.8027C51.9942 50.2934 50.624 51.7774 49.2322 53.216C47.3489 54.64 45.6417 56.34 43.8322 57.9467C40.1068 61.2534 36.4062 64.5907 32.6989 67.92ZM22.5218 55.064C22.6937 55.5667 22.8828 56.0587 23.0874 56.54C21.8448 56.2133 20.6145 55.8254 19.425 55.2987L19.3328 55.2533C20.3078 55.2187 21.2896 55.0841 22.0672 55.0654C22.2188 55.0627 22.3702 55.0667 22.5218 55.064ZM26.4208 55.052C25.8338 55.68 25.2229 56.308 24.6478 56.936L24.363 56.864C24.4254 56.2667 24.4792 55.6654 24.5136 55.0574C25.1489 55.0574 25.7849 55.0427 26.4208 55.052ZM15.4931 53.0134C15.7921 51.352 15.8635 49.604 15.7942 47.8134C17.5619 47.724 19.3202 47.5854 21.0073 47.5134C21.1817 49.32 21.4546 51.0907 21.8666 52.7854C20.2526 52.8387 17.8473 52.6827 16.5156 53.7307C16.163 53.508 15.8327 53.2547 15.4931 53.0134ZM14.486 52.2733C12.8281 50.9573 11.3374 49.436 10.0426 47.7547C11.0448 47.856 12.0672 47.8867 13.0953 47.8854C13.4245 49.4427 13.877 50.9213 14.486 52.2733ZM7.67809 44.1654L7.68382 44.152C7.78062 42.6387 7.72448 41.1027 7.60355 39.56C9.12075 39.6427 10.6473 39.6747 12.186 39.6267C12.2645 41.3894 12.3869 43.1907 12.6098 44.9533C11.2193 45.0787 9.84889 45.2747 8.54009 45.616C8.23849 45.1414 7.95209 44.6574 7.67809 44.1654ZM4.90982 37.5054C4.21448 35.0787 4.00676 32.7227 4.15262 30.4227C4.47022 30.4467 4.79422 30.4454 5.11355 30.464C5.09835 32.9814 5.19115 35.496 5.50462 37.9334C5.36355 37.9667 5.22022 37.9934 5.07969 38.0294C5.02596 37.8534 4.95982 37.6814 4.90982 37.5054ZM6.79369 30.5373C8.47595 30.5893 10.1672 30.6 11.8688 30.5467C11.8994 31.4147 11.915 32.2827 11.9568 33.152C12.0136 34.3334 12.0473 35.5987 12.0874 36.9134C10.5114 37.056 8.94995 37.2574 7.41449 37.536C7.21875 35.6454 6.98689 33.7574 6.87809 31.9027C6.85155 31.4454 6.82235 30.9933 6.79369 30.5373ZM5.30729 24.4387C5.24209 25.712 5.18595 26.9987 5.14995 28.2907C4.89475 28.3374 4.63435 28.3667 4.38022 28.416C4.58328 27.0707 4.91249 25.748 5.30729 24.4387ZM6.36662 21.3787C6.63595 20.6987 6.91822 20.0213 7.21875 19.3507C7.29995 19.2187 7.39009 19.0934 7.47289 18.9627C8.90102 19.0947 10.3401 19.1493 11.7822 19.176C11.7276 21.92 11.7084 24.664 11.763 27.4093C10.0396 27.5653 8.33435 27.7853 6.64262 28.048C6.50675 25.824 6.39262 23.6093 6.36662 21.3787ZM11.9765 13.4174C11.9281 14.4427 11.8754 15.4667 11.8417 16.4907C10.8869 16.568 9.93595 16.6627 8.99062 16.7827C9.90302 15.5787 10.9087 14.4627 11.9765 13.4174ZM16.2948 9.91872C17.7958 9.82272 19.3057 9.636 20.8145 9.43467C20.526 11.6453 20.3802 13.892 20.3328 16.1574C18.2177 16.1854 16.0989 16.2387 13.9917 16.3533C14.0484 14.7067 14.1297 13.0614 14.2224 11.416C14.8906 10.8867 15.5806 10.3854 16.2948 9.91872ZM28.0026 8.57738C28.6521 8.53071 29.315 8.50669 29.9828 8.49203C29.989 10.9867 30.025 13.484 30.0994 15.9827C29.5578 16 29.0161 16.0134 28.4745 16.0307C26.7849 16.084 25.076 16.1053 23.3593 16.1227C23.364 13.7787 23.3254 11.4401 23.1969 9.12139C24.8093 8.90272 26.4172 8.69204 28.0026 8.57738ZM29.9948 5.63337L29.9937 5.8667C28.7677 5.99603 27.562 6.12536 26.4276 6.22803C25.7156 6.29203 24.989 6.35469 24.2568 6.42002C26.0833 5.96002 28.0005 5.69603 29.9948 5.63337ZM37.362 8.42536C37.4166 10.8694 37.5052 13.3147 37.5978 15.7587C35.9286 15.8093 34.2588 15.8574 32.5896 15.908C32.5421 13.4267 32.4584 10.9494 32.3437 8.47471C34.0145 8.48137 35.7016 8.49736 37.362 8.42536ZM39.7068 8.2387C40.3 8.16937 40.8917 8.09601 41.4682 7.98135C43.1666 8.79601 44.7385 9.80537 46.1797 10.9667C46.1708 12.4734 46.2156 13.9854 46.2978 15.4987C44.2812 15.5601 42.2645 15.62 40.2484 15.68C40.086 13.1774 39.9068 10.688 39.7068 8.2387ZM48.974 25.2147C48.9229 24.7027 48.8797 24.2027 48.851 23.7173C48.7432 21.872 48.6682 20.0134 48.5806 18.1547C49.4833 18.1294 50.386 18.1054 51.288 18.08C51.6349 18.0694 51.8932 17.9374 52.103 17.7601C52.9093 19.0974 53.5896 20.516 54.1636 21.984C54.1682 22.1227 54.1724 22.248 54.1713 22.348C54.164 23.2147 54.1421 24.0947 54.1828 24.968C52.4464 25.0347 50.7098 25.124 48.974 25.2147ZM49.2869 28.1321C50.7401 28.0281 52.1937 27.9267 53.6453 27.8054C52.2552 29.108 50.8682 30.44 49.4854 31.7893C49.5005 30.5867 49.4114 29.3534 49.2869 28.1321ZM40.7234 35.248C40.7854 33.076 40.8156 30.892 40.7901 28.6907C42.8292 28.5694 44.8677 28.4427 46.9057 28.3067C46.9302 30.176 47.0489 32.064 47.4896 33.772C47.114 34.1467 46.7349 34.512 46.3614 34.892C44.4822 35.0107 42.6026 35.1293 40.7234 35.248ZM40.6292 37.8107C41.6536 37.7507 42.6792 37.6894 43.7036 37.6294C42.5912 38.8041 41.4911 39.992 40.4109 41.1934C40.4958 40.072 40.575 38.948 40.6292 37.8107ZM33.0754 38.2587C34.7344 38.1613 36.3932 38.0627 38.0521 37.964C38.1182 39.6747 38.2302 41.3774 38.4088 43.0667C38.0817 43.372 37.751 43.672 37.424 43.9774C35.9849 44.036 34.5458 44.1 33.1068 44.1574C33.1593 42.1974 33.136 40.228 33.0754 38.2587ZM24.3906 47.376C26.6412 47.288 28.8912 47.2 31.1406 47.1054C31.2526 47.976 31.3917 48.84 31.5494 49.7C30.5754 50.6867 29.613 51.6774 28.6614 52.6694C27.2989 52.6547 25.9374 52.6707 24.5754 52.7013C24.5833 50.9467 24.5177 49.1693 24.3906 47.376ZM20.6926 39.052C20.6896 40.9 20.7109 42.7854 20.8021 44.6627C19.1098 44.7227 17.3426 44.7253 15.5713 44.7813C15.3863 43.0227 15.1265 41.2493 14.8745 39.504C16.8197 39.3827 18.7656 39.212 20.6926 39.052ZM20.6369 30.0067C20.6593 30.7387 20.6838 31.4747 20.6969 32.1974C20.7202 33.5574 20.713 34.9867 20.7041 36.4547C18.6473 36.5334 16.5656 36.6027 14.4926 36.7294C14.3369 35.5081 14.2084 34.3094 14.1412 33.152C14.089 32.252 14.0697 31.3507 14.0327 30.4494C16.2359 30.3374 18.4421 30.184 20.6369 30.0067ZM20.5306 26.8694C18.326 26.9614 16.1136 27.0787 13.9088 27.2373C13.85 24.56 13.8702 21.8814 13.926 19.2027C16.0521 19.1867 18.1838 19.1013 20.3084 19.0093C20.3286 21.6373 20.4312 24.268 20.5306 26.8694ZM30.4333 26.3667C29.7349 26.412 29.036 26.46 28.338 26.5027C26.6494 26.6067 24.936 26.6827 23.213 26.7547C23.2437 24.1387 23.3057 21.508 23.3406 18.88C24.2093 18.844 25.0765 18.812 25.9396 18.7893C27.3562 18.752 28.7724 18.7093 30.189 18.6707C30.2754 21.2387 30.363 23.8054 30.4333 26.3667ZM30.5322 35.8934C28.5598 36.0174 26.5874 36.1427 24.615 36.268C24.2229 36.292 23.8245 36.3094 23.4292 36.3294C23.3265 34.9361 23.2421 33.552 23.2161 32.1974C23.201 31.4014 23.2005 30.6014 23.1984 29.8C24.926 29.66 26.6437 29.524 28.338 29.42C29.0562 29.3747 29.775 29.3347 30.4937 29.292C30.5202 31.4747 30.5161 33.68 30.5322 35.8934ZM32.7912 29.8867C32.7864 29.644 32.7849 29.4 32.7806 29.1574C34.4989 29.0587 36.2177 28.956 37.936 28.8574C37.9412 31.0427 37.939 33.2347 37.9792 35.4214C36.315 35.5267 34.6516 35.632 32.9874 35.7373C32.9114 33.7773 32.8286 31.8227 32.7912 29.8867ZM40.4208 18.384C42.4344 18.328 44.4473 18.2707 46.4604 18.2147C46.5896 20.0533 46.7306 21.8907 46.8354 23.7173C46.8645 24.232 46.8786 24.772 46.886 25.3227C44.8297 25.44 42.7734 25.5654 40.7172 25.6974C40.6521 23.2587 40.5578 20.8173 40.4208 18.384ZM37.8734 23.6373C37.8937 24.3827 37.9057 25.1307 37.915 25.88C36.1901 25.9947 34.464 26.104 32.739 26.2187C32.7062 23.6814 32.675 21.1427 32.6396 18.6013C34.326 18.556 36.0125 18.5067 37.6994 18.4601C37.7639 20.1867 37.8254 21.912 37.8734 23.6373ZM34.2827 46.9787C33.7931 47.456 33.3177 47.94 32.8354 48.42C32.8838 47.9587 32.926 47.4961 32.9614 47.0321C33.4021 47.0134 33.8421 46.9973 34.2827 46.9787ZM30.8426 44.2507C28.6166 44.34 26.3906 44.4334 24.1645 44.528C23.9926 42.6227 23.7994 40.7174 23.6286 38.8294C23.9573 38.8067 24.288 38.7814 24.615 38.7614C26.5989 38.644 28.5833 38.5254 30.5677 38.408C30.6068 40.364 30.686 42.3147 30.8426 44.2507ZM50.4661 15.3747C49.7863 15.3947 49.1068 15.416 48.427 15.436C48.3724 14.5627 48.3119 13.6907 48.2327 12.82C49.0302 13.6227 49.7802 14.472 50.4661 15.3747ZM158.539 14.12C139.965 11.8853 123.831 25.9627 124.529 44.584C125.391 67.5347 148.436 81.436 160.559 98.3227C167.731 108.313 171.807 123.085 163.517 133.648C153.585 146.305 138.661 132.084 131.16 123.996C131.869 123.328 132.583 122.663 133.295 121.995C133.992 121.34 133.913 120.243 133.295 119.579C130.765 116.857 128.239 114.136 125.715 111.411C124.955 110.591 124.255 109.689 123.487 108.909C123.385 108.575 123.277 108.243 123.123 107.916C122.872 107.387 122.575 106.872 122.275 106.36C122.608 105.973 122.941 105.585 123.275 105.204C124.108 104.251 124.013 103.187 123.275 102.225C122.484 101.196 121.68 100.177 120.871 99.1627C114.1 88.6694 105.911 79.1187 97.8853 69.4694C89.6586 59.5787 81.4146 48.508 71.816 39.6694C71.0653 38.5947 70.3466 37.4974 69.6386 36.3961C69.976 36.0174 70.3133 35.6387 70.652 35.2614C71.42 34.4054 71.32 33.4147 70.652 32.5507C69.72 31.3427 68.7666 30.2787 67.772 29.2627C65.2874 25.8121 63.4478 21.7747 59.7854 22.9987C56.3984 12.4147 47.0806 3.81337 35.6526 1.40537C21.939 -1.48396 8.25209 6.33068 3.01929 18.2893C-4.16311 30.9 2.28689 48.7174 13.877 57.164C16.401 59.004 19.0958 60.2747 21.8614 61.1027C20.9041 64.5974 24.8286 66.4107 28.1989 68.836C29.2145 69.8307 30.2786 70.7853 31.486 71.7173C32.35 72.384 33.3406 72.484 34.1964 71.7173C34.5489 71.4013 34.9026 71.0853 35.2557 70.7707C38.1494 73.652 41.3078 76.2907 44.5302 78.8507C52.1125 85.9947 60.6234 92.4774 68.4053 98.9494C78.0533 106.975 87.6053 115.164 98.0986 121.936C99.1133 122.744 100.132 123.548 101.161 124.339C102.123 125.077 103.185 125.172 104.14 124.339C104.579 123.956 105.023 123.573 105.467 123.191C105.884 123.353 106.304 123.507 106.676 123.709C106.995 123.883 107.3 124.116 107.612 124.328C108.443 125.185 109.445 125.944 110.347 126.78C113.072 129.303 115.793 131.831 118.513 134.359C119.179 134.977 120.276 135.057 120.931 134.359C121.224 134.045 121.517 133.733 121.811 133.421C122.172 133.896 122.597 134.312 123.096 134.663C124.739 136.212 126.473 137.644 128.232 139.059C129.616 140.172 131.047 141.337 132.531 142.423C147.095 154.813 171.169 153.231 179.796 132.488C184.181 121.945 180.005 110.036 175.271 100.421C172.036 93.8494 167.851 87.6854 163.287 81.9667C159.669 77.4347 155.545 72.08 150.64 68.3787C150.007 67.76 149.367 67.148 148.752 66.5253C148.599 66.2907 148.455 66.052 148.295 65.8187C147.619 65.0427 147.051 64.2987 146.729 63.8974C146.387 63.468 146.06 63.0214 145.743 62.564C145.439 62.2334 145.06 61.82 144.655 61.3533C143.632 59.8227 142.653 58.2627 141.601 56.764L141.532 56.584C141.251 56.1227 140.98 55.6614 140.739 55.1934C140.631 54.984 140.54 54.7653 140.437 54.5533C139.82 52.992 139.259 51.4054 138.656 49.8494C136.325 41.4054 138.087 32.032 146.061 27C154.332 21.78 166.04 27.5733 173.36 31.74C181.545 36.3987 187.044 43.484 194.012 49.46L194.228 49.744C194.367 49.9347 194.551 50.0334 194.741 50.0627C194.851 50.1307 194.975 50.1774 195.107 50.1907C195.263 50.4894 195.549 50.7147 195.953 50.7027C198.859 50.6214 201.784 50.18 204.672 49.872L204.787 49.8467C206.001 49.728 207.077 48.5347 206.237 47.2453C195.759 31.1627 178.04 16.468 158.539 14.12Z" fill="#333333"/>
</svg>
