<svg width="177" height="131" viewBox="0 0 207 151" fill="none" xmlns="http://www.w3.org/2000/svg"><path d="m50.466 15.375-2.039.061a93.122 93.122 0 0 0-.194-2.616 25.619 25.619 0 0 1 2.233 2.555zM30.843 44.25c-2.226.09-4.452.183-6.678.278-.172-1.905-.366-3.81-.536-5.699.328-.022.659-.048.986-.068l5.953-.353a96.33 96.33 0 0 0 .275 5.843zM34.283 46.979c-.49.477-.965.961-1.448 1.441.049-.461.091-.924.127-1.388.44-.019.88-.035 1.32-.053zM37.873 23.637c.02.746.033 1.494.042 2.243-1.725.115-3.451.224-5.176.339-.033-2.538-.064-5.076-.1-7.618 1.687-.045 3.373-.094 5.06-.14.065 1.726.127 3.451.175 5.176zM40.42 18.384l6.04-.17c.13 1.84.27 3.677.375 5.503.03.515.044 1.055.051 1.606-2.056.117-4.113.242-6.169.374-.065-2.438-.16-4.88-.296-7.313zM32.791 29.887c-.005-.243-.006-.487-.01-.73 1.718-.098 3.437-.2 5.155-.3.005 2.186.003 4.378.043 6.564l-4.992.316c-.076-1.96-.158-3.914-.196-5.85zM30.532 35.893l-5.917.375c-.392.024-.79.041-1.186.061a76.496 76.496 0 0 1-.213-4.132c-.015-.796-.015-1.596-.018-2.397 1.728-.14 3.446-.276 5.14-.38.718-.045 1.437-.085 2.156-.128.026 2.183.022 4.388.038 6.601zM30.433 26.367c-.698.045-1.397.093-2.095.136-1.689.104-3.402.18-5.125.252.03-2.616.093-5.247.128-7.875.868-.036 1.735-.068 2.599-.09 1.416-.038 2.832-.08 4.25-.12.085 2.569.173 5.135.243 7.697zM20.53 26.87c-2.204.091-4.416.209-6.621.367a187.8 187.8 0 0 1 .017-8.034c2.126-.016 4.258-.102 6.382-.194.02 2.628.123 5.26.223 7.86zM20.637 30.007c.022.732.047 1.468.06 2.19.023 1.36.016 2.79.007 4.258-2.057.078-4.138.148-6.211.274a52.645 52.645 0 0 1-.352-3.577c-.052-.9-.071-1.801-.108-2.703 2.203-.112 4.41-.265 6.604-.442zM20.693 39.052c-.003 1.848.018 3.733.11 5.61-1.693.06-3.46.063-5.232.12-.185-1.76-.444-3.533-.697-5.278 1.946-.121 3.892-.292 5.819-.452zM24.39 47.376c2.251-.088 4.501-.176 6.75-.27.113.87.252 1.734.41 2.594-.974.987-1.937 1.977-2.889 2.97a122.86 122.86 0 0 0-4.085.031 70.874 70.874 0 0 0-.185-5.325zM33.075 38.259l4.977-.295a76.72 76.72 0 0 0 .357 5.103c-.327.305-.658.605-.985.91-1.44.06-2.878.123-4.317.18.052-1.96.029-3.929-.032-5.898zM40.63 37.81l3.074-.18a188.532 188.532 0 0 0-3.293 3.563c.085-1.12.164-2.245.218-3.382zM40.723 35.248c.062-2.172.093-4.356.067-6.557 2.04-.122 4.078-.248 6.116-.384.024 1.869.143 3.757.584 5.465-.376.375-.755.74-1.129 1.12l-5.638.356zM49.287 28.132c1.453-.104 2.907-.205 4.358-.327a285.198 285.198 0 0 0-4.16 3.984c.016-1.202-.074-2.436-.198-3.657zM48.974 25.215a37.536 37.536 0 0 1-.123-1.498c-.108-1.845-.183-3.704-.27-5.562.902-.026 1.805-.05 2.707-.075a1.28 1.28 0 0 0 .815-.32 27.72 27.72 0 0 1 2.06 4.224c.005.139.01.264.008.364-.007.867-.029 1.747.012 2.62-1.737.067-3.473.156-5.209.247zM39.707 8.239c.593-.07 1.185-.143 1.761-.258a24.168 24.168 0 0 1 4.712 2.986 75.305 75.305 0 0 0 .118 4.532l-6.05.181a448.446 448.446 0 0 0-.541-7.441zM37.362 8.425c.055 2.444.143 4.89.236 7.334-1.67.05-3.34.098-5.008.15a274.04 274.04 0 0 0-.246-7.434c1.67.006 3.358.022 5.018-.05zM29.995 5.633l-.001.234c-1.226.13-2.432.258-3.566.361-.712.064-1.439.127-2.171.192a26.924 26.924 0 0 1 5.738-.787zM28.003 8.577c.65-.046 1.312-.07 1.98-.085.006 2.495.042 4.992.116 7.49-.541.018-1.083.031-1.625.049-1.69.053-3.398.074-5.115.092.005-2.344-.034-4.683-.162-7.002 1.612-.218 3.22-.429 4.806-.544zM16.295 9.919c1.5-.096 3.01-.283 4.52-.484a62.005 62.005 0 0 0-.482 6.722c-2.115.028-4.234.082-6.341.196.056-1.646.138-3.292.23-4.937.669-.53 1.359-1.03 2.073-1.497zM11.976 13.417c-.048 1.026-.1 2.05-.134 3.074-.955.077-1.906.172-2.851.292a30.503 30.503 0 0 1 2.986-3.366zM6.367 21.379c.269-.68.551-1.358.852-2.028.081-.132.171-.258.254-.388 1.428.132 2.867.186 4.31.213a206.559 206.559 0 0 0-.02 8.233 80.844 80.844 0 0 0-5.12.64c-.136-2.225-.25-4.44-.276-6.67zM5.307 24.439c-.065 1.273-.121 2.56-.157 3.852-.255.046-.516.076-.77.125.203-1.345.533-2.668.927-3.977zM6.794 30.537c1.682.052 3.373.063 5.075.01.03.868.046 1.736.088 2.605.057 1.181.09 2.447.13 3.761a52.84 52.84 0 0 0-4.672.623c-.196-1.89-.428-3.779-.537-5.633-.026-.458-.056-.91-.084-1.366zM4.91 37.505a20.695 20.695 0 0 1-.757-7.082c.317.024.641.022.96.041-.015 2.517.078 5.032.392 7.47-.141.033-.285.06-.425.095-.054-.176-.12-.348-.17-.524zM7.678 44.165l.006-.013c.097-1.513.04-3.05-.08-4.592 1.517.083 3.043.115 4.582.067.079 1.762.2 3.564.424 5.326-1.39.126-2.761.322-4.07.663a29.154 29.154 0 0 1-.862-1.45zM14.486 52.273a26.09 26.09 0 0 1-4.443-4.518 30.05 30.05 0 0 0 3.052.13c.33 1.558.782 3.036 1.391 4.388zM15.493 53.013c.3-1.66.37-3.409.301-5.2 1.768-.089 3.526-.228 5.213-.3.175 1.807.448 3.578.86 5.272-1.614.054-4.02-.102-5.351.946-.353-.223-.683-.476-1.023-.718zM26.42 55.052c-.586.628-1.197 1.256-1.772 1.884l-.285-.072c.062-.597.116-1.198.15-1.806.636 0 1.272-.015 1.908-.006zM22.522 55.064c.172.503.36.995.565 1.476-1.242-.327-2.473-.715-3.662-1.241l-.092-.046c.975-.034 1.957-.169 2.734-.188.152-.002.303.002.455 0zM32.699 67.92l-.228-.167c-3.121-2.829-9.328-4.645-4.288-9.566 3.032-2.96 6.06-5.924 9.08-8.896.848-.835 1.696-1.664 2.543-2.492 1.007-.967 2-1.95 2.987-2.942a191.62 191.62 0 0 0 2.942-2.986c.828-.847 1.657-1.695 2.492-2.544 2.971-3.02 5.935-6.048 8.895-9.079 4.922-5.04 6.737 1.167 9.567 4.287l.166.23c-3.329 3.706-6.665 7.406-9.973 11.132-1.172 1.32-2.385 2.588-3.514 3.906a249.316 249.316 0 0 1-4.136 4.413c-1.883 1.424-3.59 3.124-5.4 4.73-3.725 3.307-7.426 6.645-11.133 9.974zM102.964 119.797c-9.072-7.26-18.905-13.626-28.067-20.792-6.537-5.114-12.704-10.77-19.074-16.126-5.689-5.195-11.444-10.335-17.606-14.755a805.103 805.103 0 0 0 8.309-7.485c2.293-2.103 4.776-4.002 6.61-6.439 1.825-1.373 3.35-3.112 4.883-4.863a60.397 60.397 0 0 0 2.12-2.373 883.05 883.05 0 0 0 6.921-7.683c7.817 10.9 17.884 20.538 26.53 30.76 3.233 3.82 6.378 7.72 9.521 11.623.846 1.128 1.698 2.255 2.536 3.39 4.536 6.15 8.304 13.038 13.017 19.055-.803.923-1.607 1.848-2.404 2.786-1.535 1.65-2.967 3.425-4.485 5.05-.986 1.055-2.047 2.059-3.118 3.059-1.949 1.537-3.83 3.171-5.693 4.793zM110.547 122.849a18.537 18.537 0 0 0-1.882-2.446c1.891-1.671 3.744-3.39 5.432-5.24 2.092-1.908 4.018-4.022 5.892-6.167.702 1.737 2.347 3.121 3.587 4.553 2.017 2.328 4.031 4.659 6.043 6.99-1.77 1.349-3.812 2.964-5.364 4.78-1.816 1.552-3.431 3.594-4.78 5.365a6725.61 6725.61 0 0 1-6.99-6.043c-.642-.557-1.278-1.194-1.938-1.792z" fill="#fff"/><path d="M201.676 47.89c-1.989.214-3.984.443-5.932.827-4.375-10.268-15.136-17.641-24.677-22.634-8.386-4.388-18.052-6.584-26.898-2.415-8.154 3.845-11.492 14.944-9.945 23.217.704 3.762 2.313 8.586 4.656 13.063l.119.19c2.596 3.9 5.834 7.314 8.897 10.855.488.458.977.916 1.492 1.335 1.121 1.095 2.255 2.183 3.349 3.327 4.292 4.493 8.303 9.228 11.738 14.413 5.929 8.952 11.484 19.017 12.706 29.843 1.458 12.909-7.526 23.522-19.768 26.296-8.078 1.83-15.633-.735-21.748-5.459-.945-.904-1.964-1.747-2.984-2.572a40.277 40.277 0 0 1-6.902-8.892 20.53 20.53 0 0 0 1.229-1.212c.468-.443.907-.869 1.3-1.319l.175-.17c5.546 7.017 11.562 13.19 20.484 15.573 7.169 1.915 15.413-.981 19.405-7.335 11.337-18.044-1.465-37.6-13.923-50.936-7.994-8.558-16.509-16.402-21.926-26.968-6.146-11.986-4.098-26.388 7.434-34.049 10.687-7.1 24.258-4.336 34.858 1.199 11.057 5.773 17.994 15.628 26.861 23.824z" fill="#fff"/><path d="M7.679 44.165c.273.492.56.976.861 1.451 1.309-.341 2.68-.537 4.07-.663-.223-1.762-.345-3.564-.424-5.326a53.467 53.467 0 0 1-4.582-.067c.12 1.543.177 3.079.08 4.592l-.005.013zM11.957 33.152c-.042-.87-.058-1.737-.088-2.605a81.526 81.526 0 0 1-5.075-.01c.028.456.058.908.084 1.366.109 1.854.34 3.742.537 5.633a52.36 52.36 0 0 1 4.672-.623c-.04-1.314-.073-2.58-.13-3.761zM13.909 27.237c.882-.062 1.766-.096 2.65-.146a36.816 36.816 0 0 1-1.473-6.403c-.045-.503-.101-1.005-.152-1.507-.336.006-.672.02-1.008.022a187.8 187.8 0 0 0-.017 8.034zM14.486 52.273c-.609-1.352-1.062-2.83-1.39-4.388a30.07 30.07 0 0 1-3.054-.13 26.093 26.093 0 0 0 4.444 4.518zM11.763 27.41c-.055-2.746-.035-5.49.02-8.234a58.636 58.636 0 0 1-4.31-.213c-.083.13-.173.256-.254.388-.3.67-.583 1.348-.852 2.028.025 2.23.14 4.445.276 6.67a80.844 80.844 0 0 1 5.12-.64zM49.232 53.216c.952-.984 1.888-2.004 2.828-3.019.608-2.638.175-5.169-1.977-7.322-1.285-1.286-2.702-1.955-4.193-2.163l-.155.159c-.968 1.006-1.95 2-2.942 2.986-.987.992-1.98 1.975-2.987 2.942-.847.828-1.695 1.657-2.543 2.492-3.02 2.972-6.048 5.936-9.08 8.896-5.04 4.921 1.167 6.737 4.288 9.566l.228.167c3.707-3.33 7.408-6.667 11.133-9.973 1.81-1.607 3.517-3.307 5.4-4.73zM199.564 48.139l-.215-.268c-4.605-5.724-10.028-10.746-15.782-15.287-10.206-8.056-24.5-17.148-37.767-10.767-12.095 5.818-16.78 18.742-12.569 31.211 2.236 6.619 7.332 11.981 11.977 17.005 3.259 3.523 6.637 7.686 10.323 11.355 2.06 2.835 4.374 5.51 6.646 8.04 2.606 4.525 6.162 8.925 8.183 12.623 5.06 9.26 7.389 20.98 2.816 30.866-4.677 10.115-14.695 12.678-24.897 10.424-4.802-1.06-9.419-3.444-13.45-6.204-3.313-2.269-5.737-5.646-9.029-7.874l-.021.021a40.277 40.277 0 0 0 6.902 8.892c1.02.825 2.039 1.668 2.984 2.572 6.115 4.725 13.67 7.289 21.748 5.459 12.242-2.774 21.226-13.387 19.768-26.296-1.222-10.826-6.777-20.891-12.706-29.843-3.435-5.185-7.446-9.92-11.738-14.413-1.094-1.144-2.228-2.232-3.349-3.327-.515-.419-1.004-.877-1.492-1.335-3.063-3.54-6.301-6.956-8.897-10.854l-.119-.191c-2.343-4.477-3.952-9.301-4.656-13.063-1.547-8.273 1.791-19.372 9.945-23.217 8.846-4.17 18.512-1.973 26.898 2.415 9.541 4.993 20.302 12.366 24.677 22.634 1.259-.248 2.537-.422 3.82-.578zM120.224 120.06c-1.749-1.536-4.557-3.624-6.929-4.08a76.523 76.523 0 0 1-4.63 4.423c.69.753 1.32 1.578 1.882 2.446.66.598 1.296 1.235 1.938 1.792a6725.61 6725.61 0 0 0 6.99 6.043c1.349-1.771 2.964-3.813 4.78-5.365l.258-.275c-.92-1.96-2.706-3.596-4.289-4.984zM20.704 36.455l.006-1.59c-.211-.265-.435-.522-.636-.793-.895-1.208-1.639-2.515-2.278-3.875-1.255.088-2.508.188-3.763.252.037.902.056 1.803.109 2.703.066 1.157.195 2.356.35 3.577 2.074-.126 4.155-.196 6.212-.274zM5.307 24.439c-.394 1.31-.724 2.632-.927 3.977.254-.05.515-.079.77-.125.036-1.292.093-2.579.157-3.852zM5.08 38.03c.14-.037.284-.063.425-.097-.314-2.437-.407-4.952-.391-7.469-.32-.019-.644-.017-.961-.041-.146 2.3.062 4.656.757 7.082.05.176.116.348.17.524zM32.835 48.42c.483-.48.958-.964 1.448-1.441-.44.018-.88.034-1.322.053-.035.464-.077.927-.126 1.388zM37.425 43.977c.326-.305.657-.604.984-.91l-.027-.31c-.646.383-1.29.806-1.928 1.262.323-.015.647-.028.97-.041zM14.222 11.416c-.092 1.645-.174 3.29-.23 4.937.263-.014.527-.02.79-.032.02-1.849.193-3.677.273-5.506-.276.204-.564.39-.833.601zM74.897 99.005c9.162 7.166 18.995 13.532 28.067 20.792a269.005 269.005 0 0 1 3.036-2.61c-.124-1.627-.952-3.199-1.989-4.408-10.1-11.792-21.754-22.202-33.036-32.892a571.35 571.35 0 0 0-5.402-5.048c1.223.166 2.471.078 3.679-.356 1.495-.538 2.59-1.742 2.59-3.404 0-1.415-1.062-3.19-2.59-3.403-1.708-.24-3.595-.043-4.704-1.628-.43-.617-.598-1.253-.644-1.99-.044-.703.612-1.253 1.169-2.21.764-1.316.33-3.112-1.015-3.87-2.435-1.37-5.14-.478-6.577 1.897-1.301 2.15-1.512 4.579-.87 6.95-.992-.857-1.98-1.716-2.984-2.554-1.782-1.49-3.823-3.222-6.013-4.6-.364.321-.73.64-1.088.968a805.103 805.103 0 0 1-8.309 7.485c6.162 4.42 11.917 9.56 17.607 14.755 6.37 5.356 12.536 11.012 19.073 16.126zM34.868 44.084c-.212-.047-.42-.08-.634-.135-.38-.097-.748-.229-1.122-.346-.004.185 0 .37-.005.554.587-.023 1.174-.049 1.761-.073zM26.42 55.052c-.635-.01-1.271.005-1.906.005-.035.608-.089 1.21-.151 1.807l.285.072c.575-.628 1.186-1.256 1.773-1.884zM24.576 52.701a122.86 122.86 0 0 1 4.085-.032c.952-.992 1.915-1.982 2.888-2.969a49.051 49.051 0 0 1-.408-2.595c-2.25.095-4.5.183-6.75.271.127 1.793.192 3.57.185 5.325zM20.802 44.663a112.156 112.156 0 0 1-.11-5.61c-1.926.16-3.872.33-5.818.451.252 1.745.512 3.519.697 5.277 1.772-.056 3.539-.058 5.231-.118zM11.842 16.49c.034-1.023.086-2.047.134-3.073a30.503 30.503 0 0 0-2.985 3.366c.945-.12 1.896-.215 2.85-.292zM24.165 44.528c2.226-.095 4.452-.188 6.678-.277-.041-.508-.064-1.02-.096-1.53a25.603 25.603 0 0 1-6.28-3.949c-.28.017-.56.039-.838.057.17 1.888.364 3.794.535 5.7zM21.867 52.785c-.412-1.694-.685-3.465-.86-5.272-1.687.072-3.445.211-5.212.3.069 1.791-.003 3.54-.302 5.2.34.242.67.495 1.023.718 1.331-1.048 3.737-.892 5.35-.946zM22.522 55.064c-.152.003-.303-.001-.455.001-.777.02-1.76.154-2.734.188l.092.046c1.19.526 2.42.914 3.662 1.241a21.83 21.83 0 0 1-.565-1.476z" fill="#A2C0CB"/><path d="M59.17 69.641c-1.923-2.996-.58-5.788 1.234-8.173 2.385-1.813 5.177-3.156 8.173-1.233 4.555 2.924 4.154 7.36 1.68 11.086-3.726 2.474-8.163 2.875-11.086-1.68zm13.69 4.364.043-.038.038-.043c4.496-4.296 3.798-12.897-1.608-16.395-2.662-1.724-6.754-2.822-9.67-.878-1.159.772-2.391 1.673-3.303 2.773-1.1.912-2.002 2.145-2.774 3.303-1.944 2.917-.845 7.008.879 9.67 3.497 5.406 12.098 6.106 16.395 1.608z" fill="#333"/><path d="M201.676 47.89c-1.989.214-3.984.443-5.932.827-4.375-10.268-15.136-17.641-24.677-22.634-8.386-4.388-18.052-6.584-26.898-2.415-8.154 3.845-11.492 14.944-9.945 23.217.704 3.762 2.313 8.586 4.656 13.063l.119.19c2.596 3.9 5.834 7.314 8.897 10.855.488.458.977.916 1.492 1.335 1.121 1.095 2.255 2.183 3.349 3.327 4.292 4.493 8.303 9.228 11.738 14.413 5.929 8.952 11.484 19.017 12.706 29.843 1.458 12.909-7.526 23.522-19.768 26.296-8.078 1.83-15.633-.735-21.748-5.459-.945-.904-1.964-1.747-2.984-2.572a40.277 40.277 0 0 1-6.902-8.892 20.53 20.53 0 0 0 1.229-1.212c.468-.443.907-.869 1.3-1.319l.175-.17c5.546 7.017 11.562 13.19 20.484 15.573 7.169 1.915 15.413-.981 19.405-7.335 11.337-18.044-1.465-37.6-13.923-50.936-7.994-8.558-16.509-16.402-21.926-26.968-6.146-11.986-4.098-26.388 7.434-34.049 10.687-7.1 24.258-4.336 34.858 1.199 11.057 5.773 17.994 15.628 26.861 23.824zm-91.129 74.959a18.537 18.537 0 0 0-1.882-2.446c1.891-1.671 3.744-3.39 5.432-5.24 2.092-1.908 4.018-4.022 5.892-6.167.702 1.737 2.347 3.121 3.587 4.553 2.017 2.328 4.031 4.659 6.043 6.99-1.77 1.349-3.812 2.964-5.364 4.78-1.816 1.552-3.431 3.594-4.78 5.365a6725.61 6725.61 0 0 1-6.99-6.043c-.642-.557-1.278-1.194-1.938-1.792zm-7.583-3.052c-9.072-7.26-18.905-13.626-28.067-20.792-6.537-5.114-12.704-10.77-19.074-16.126-5.689-5.195-11.444-10.335-17.606-14.755a805.092 805.092 0 0 0 8.308-7.485c2.294-2.103 4.777-4.002 6.61-6.439 1.826-1.373 3.35-3.112 4.884-4.863a60.325 60.325 0 0 0 2.12-2.373 883.061 883.061 0 0 0 6.921-7.683C74.877 50.18 84.944 59.82 93.59 70.04c3.233 3.82 6.378 7.721 9.521 11.624.846 1.128 1.698 2.255 2.536 3.39 4.536 6.15 8.304 13.038 13.017 19.055-.803.923-1.607 1.848-2.404 2.786-1.535 1.65-2.967 3.425-4.485 5.05-.986 1.055-2.047 2.059-3.118 3.059-1.949 1.537-3.83 3.171-5.693 4.793zM32.699 67.92l-.228-.167c-3.121-2.829-9.328-4.645-4.288-9.566 3.032-2.96 6.06-5.924 9.08-8.896.848-.835 1.696-1.664 2.543-2.492 1.007-.967 2-1.95 2.987-2.942a191.62 191.62 0 0 0 2.942-2.986c.828-.847 1.657-1.695 2.492-2.544 2.971-3.02 5.935-6.048 8.895-9.079 4.922-5.04 6.737 1.167 9.567 4.287l.166.229c-3.329 3.707-6.665 7.407-9.973 11.133-1.172 1.319-2.385 2.588-3.514 3.906a248.96 248.96 0 0 1-4.136 4.413c-1.883 1.424-3.59 3.124-5.4 4.73-3.725 3.307-7.426 6.645-11.133 9.974zM22.522 55.064c.172.503.36.995.565 1.476-1.242-.327-2.473-.715-3.662-1.241l-.092-.046c.975-.034 1.957-.169 2.734-.188.152-.002.303.002.455-.001zm3.899-.012c-.587.628-1.198 1.256-1.773 1.884l-.285-.072c.062-.597.116-1.199.15-1.807.636 0 1.272-.014 1.908-.005zm-10.928-2.039c.3-1.661.37-3.409.301-5.2 1.768-.089 3.526-.228 5.213-.3.175 1.807.448 3.578.86 5.272-1.614.054-4.02-.102-5.351.946-.353-.223-.683-.476-1.023-.718zm-1.007-.74a26.09 26.09 0 0 1-4.443-4.518c1.002.101 2.024.132 3.052.13.33 1.558.782 3.036 1.391 4.388zm-6.808-8.108.006-.013c.097-1.513.04-3.05-.08-4.592 1.517.083 3.043.115 4.582.067.079 1.762.2 3.564.424 5.326-1.39.126-2.761.322-4.07.663a29.105 29.105 0 0 1-.862-1.45zm-2.768-6.66a20.695 20.695 0 0 1-.757-7.082c.317.024.641.022.96.041-.015 2.517.078 5.032.392 7.47-.141.033-.285.06-.425.095-.054-.176-.12-.348-.17-.524zm1.884-6.968c1.682.052 3.373.063 5.075.01.03.868.046 1.736.088 2.605.057 1.181.09 2.447.13 3.761a52.878 52.878 0 0 0-4.673.623c-.195-1.89-.427-3.779-.536-5.633-.026-.458-.056-.91-.084-1.366zM5.307 24.44c-.065 1.273-.121 2.56-.157 3.852-.255.046-.516.076-.77.125.203-1.345.532-2.668.927-3.977zm1.06-3.06c.269-.68.551-1.358.852-2.028.08-.132.171-.258.254-.388 1.428.132 2.867.186 4.31.213a206.937 206.937 0 0 0-.02 8.233 80.853 80.853 0 0 0-5.12.639c-.136-2.224-.25-4.439-.276-6.67zm5.61-7.962c-.049 1.026-.102 2.05-.135 3.074-.955.077-1.906.172-2.851.292a30.492 30.492 0 0 1 2.986-3.366zm4.318-3.498c1.5-.096 3.01-.283 4.52-.484a62.003 62.003 0 0 0-.482 6.722c-2.115.028-4.234.082-6.341.196.056-1.646.138-3.292.23-4.937.669-.53 1.359-1.03 2.073-1.497zm11.708-1.342c.65-.046 1.312-.07 1.98-.085.006 2.495.042 4.992.116 7.49-.541.018-1.083.031-1.625.049-1.69.053-3.398.074-5.115.092.005-2.344-.034-4.683-.162-7.002 1.612-.218 3.22-.429 4.806-.544zm1.992-2.944-.001.234c-1.226.129-2.432.258-3.566.361-.712.064-1.439.127-2.171.192a26.921 26.921 0 0 1 5.738-.787zm7.367 2.792c.055 2.444.143 4.89.236 7.334-1.67.05-3.34.098-5.008.149a273.649 273.649 0 0 0-.246-7.433c1.67.006 3.358.022 5.018-.05zm2.345-.186c.593-.07 1.185-.143 1.761-.258a24.17 24.17 0 0 1 4.712 2.986 75.388 75.388 0 0 0 .118 4.532l-6.05.181a448.521 448.521 0 0 0-.541-7.441zm9.267 16.976a37.344 37.344 0 0 1-.123-1.498c-.108-1.845-.183-3.704-.27-5.562.902-.026 1.805-.05 2.707-.075a1.28 1.28 0 0 0 .815-.32 27.72 27.72 0 0 1 2.06 4.224c.005.139.01.264.008.364-.007.867-.029 1.747.012 2.62-1.737.067-3.473.156-5.209.247zm.313 2.917c1.453-.104 2.907-.205 4.358-.327a285.193 285.193 0 0 0-4.16 3.984c.016-1.202-.074-2.436-.198-3.657zm-8.564 7.116c.062-2.172.093-4.356.067-6.557 2.04-.122 4.078-.248 6.116-.384.024 1.869.143 3.757.584 5.465-.376.375-.755.74-1.129 1.12l-5.638.356zm-.094 2.563 3.075-.182a187.895 187.895 0 0 0-3.293 3.564c.085-1.121.164-2.245.218-3.382zm-7.554.448 4.977-.295c.066 1.71.178 3.413.357 5.103-.327.305-.658.605-.985.91-1.44.059-2.878.123-4.317.18.052-1.96.029-3.929-.032-5.898zm-8.684 9.117c2.25-.088 4.5-.176 6.75-.27.112.87.25 1.734.408 2.594-.974.987-1.936 1.977-2.888 2.97a122.86 122.86 0 0 0-4.086.031 70.876 70.876 0 0 0-.184-5.325zm-3.698-8.324c-.003 1.848.018 3.733.11 5.61-1.693.06-3.46.063-5.232.12-.185-1.76-.444-3.533-.697-5.278 1.946-.121 3.892-.292 5.819-.452zm-.056-9.045c.022.732.047 1.468.06 2.19.023 1.36.016 2.79.007 4.258-2.057.078-4.138.148-6.211.274a52.638 52.638 0 0 1-.352-3.577c-.052-.9-.071-1.801-.108-2.703a222.24 222.24 0 0 0 6.604-.442zm-.106-3.138c-2.205.092-4.417.21-6.622.368-.059-2.677-.039-5.356.017-8.034 2.126-.016 4.258-.102 6.382-.194.02 2.628.123 5.259.223 7.86zm9.902-.502c-.698.045-1.397.093-2.095.136-1.689.104-3.402.18-5.125.252.03-2.616.093-5.247.128-7.875.868-.036 1.735-.068 2.599-.09 1.416-.038 2.832-.08 4.249-.12.086 2.569.174 5.135.244 7.697zm.1 9.526c-1.973.124-3.946.25-5.918.375-.392.024-.79.041-1.186.061a76.496 76.496 0 0 1-.213-4.132c-.015-.796-.015-1.596-.018-2.397 1.728-.14 3.446-.276 5.14-.38.718-.045 1.437-.085 2.156-.128.026 2.183.022 4.388.038 6.601zm2.258-6.006c-.005-.243-.006-.487-.01-.73 1.718-.098 3.437-.201 5.155-.3.005 2.186.003 4.378.043 6.564l-4.992.316c-.076-1.96-.158-3.914-.196-5.85zm7.63-11.503 6.04-.17c.129 1.84.27 3.677.374 5.503.03.515.044 1.055.051 1.606-2.056.117-4.113.242-6.169.374-.065-2.438-.16-4.88-.296-7.313zm-2.548 5.253c.02.746.033 1.494.042 2.243-1.725.115-3.451.224-5.176.339-.033-2.538-.064-5.076-.1-7.618 1.687-.045 3.373-.094 5.06-.14.065 1.726.126 3.451.174 5.176zm-3.59 23.342c-.49.477-.965.961-1.448 1.441.049-.461.091-.924.126-1.388.441-.019.881-.035 1.322-.053zm-3.44-2.728c-2.226.089-4.452.182-6.678.277-.172-1.905-.366-3.81-.536-5.699.328-.022.659-.048.986-.068l5.953-.353c.039 1.956.118 3.907.275 5.843zm19.623-28.876-2.039.061a92.775 92.775 0 0 0-.194-2.616 25.644 25.644 0 0 1 2.233 2.555zM158.54 14.12c-18.574-2.235-34.708 11.843-34.01 30.464.862 22.95 23.907 36.852 36.03 53.739 7.172 9.99 11.248 24.762 2.958 35.325-9.932 12.657-24.856-1.564-32.357-9.652.709-.668 1.423-1.333 2.135-2.001.697-.655.618-1.752 0-2.416-2.53-2.722-5.056-5.443-7.58-8.168-.76-.82-1.46-1.722-2.228-2.502a7.287 7.287 0 0 0-.364-.993 20.47 20.47 0 0 0-.848-1.556c.333-.387.666-.775 1-1.156.833-.953.738-2.017 0-2.979a217.443 217.443 0 0 0-2.404-3.062c-6.771-10.494-14.96-20.044-22.986-29.694-8.226-9.89-16.47-20.961-26.069-29.8-.75-1.074-1.47-2.172-2.177-3.273.337-.379.674-.757 1.013-1.135.768-.856.668-1.846 0-2.71a36.706 36.706 0 0 0-2.88-3.288c-2.485-3.45-4.324-7.488-7.987-6.264C56.398 12.415 47.081 3.813 35.653 1.405 21.939-1.484 8.253 6.331 3.019 18.29-4.163 30.9 2.287 48.717 13.877 57.164a26.225 26.225 0 0 0 7.984 3.939c-.957 3.494 2.968 5.308 6.338 7.733 1.015.995 2.08 1.95 3.287 2.881.864.667 1.855.767 2.71 0l1.06-.946c2.893 2.881 6.052 5.52 9.274 8.08 7.582 7.144 16.093 13.626 23.875 20.098 9.648 8.026 19.2 16.215 29.694 22.987 1.014.808 2.033 1.612 3.062 2.403.962.738 2.024.833 2.979 0 .439-.383.883-.766 1.327-1.148.417.162.837.316 1.209.518.319.174.624.407.936.619.831.857 1.833 1.616 2.735 2.452 2.725 2.523 5.446 5.051 8.166 7.579.666.618 1.763.698 2.418 0 .293-.314.586-.626.88-.938.361.475.786.891 1.285 1.242 1.643 1.549 3.377 2.981 5.136 4.396 1.384 1.113 2.815 2.278 4.299 3.364 14.564 12.39 38.638 10.808 47.265-9.935 4.385-10.543.209-22.452-4.525-32.067-3.235-6.572-7.42-12.736-11.984-18.454-3.618-4.532-7.742-9.887-12.647-13.588-.633-.619-1.273-1.231-1.888-1.854-.153-.234-.297-.473-.457-.706-.676-.776-1.244-1.52-1.566-1.922-.342-.429-.669-.876-.986-1.333-.304-.33-.683-.744-1.088-1.21-1.023-1.531-2.002-3.091-3.054-4.59l-.069-.18a22.446 22.446 0 0 1-.793-1.39c-.108-.21-.199-.429-.302-.64-.617-1.562-1.178-3.149-1.781-4.705-2.331-8.444-.569-17.817 7.405-22.849 8.271-5.22 19.979.573 27.299 4.74 8.185 4.659 13.684 11.744 20.652 17.72l.216.284a.77.77 0 0 0 .513.319c.11.068.234.114.366.128.156.298.442.524.846.512 2.906-.082 5.831-.523 8.719-.831l.115-.025c1.214-.119 2.29-1.312 1.45-2.602-10.478-16.082-28.197-30.777-47.698-33.125z" fill="#333"/></svg>